<?xml version="1.0" standalone="no"?>
<!DOCTYPE svg PUBLIC "-//W3C//DTD SVG 20010904//EN"
 "http://www.w3.org/TR/2001/REC-SVG-20010904/DTD/svg10.dtd">
<svg version="1.0" xmlns="http://www.w3.org/2000/svg"
 width="512.000000pt" height="512.000000pt" viewBox="0 0 512.000000 512.000000"
 preserveAspectRatio="xMidYMid meet">
<metadata>
Created by potrace 1.14, written by Peter Selinger 2001-2017
</metadata>
<g transform="translate(0.000000,512.000000) scale(0.100000,-0.100000)"
fill="#000000" stroke="none">
<path d="M553 4773 c-33 -6 -81 -58 -93 -101 -6 -23 -10 -255 -10 -635 l0
-598 148 3 147 3 3 243 2 242 140 0 140 0 0 150 0 150 -140 0 -140 0 0 130 0
130 170 0 170 0 0 145 0 145 -257 -1 c-142 -1 -268 -4 -280 -6z"/>
<path d="M1390 4635 l0 -145 1490 0 1490 0 0 -1925 0 -1925 -1810 0 -1810 0 0
1250 0 1250 -150 0 -150 0 2 -1342 3 -1343 22 -36 c44 -69 -132 -64 2083 -64
2215 0 2039 -5 2083 64 l22 36 0 2110 0 2110 -22 35 c-44 71 100 65 -1660 68
l-1593 2 0 -145z"/>
</g>
</svg>
