<svg xmlns="http://www.w3.org/2000/svg" xmlns:xlink="http://www.w3.org/1999/xlink">
  <defs>

<!-- About (https://remixicon.com/) -->
<symbol id="brain-line" viewBox="0 0 24 24"><path d="M7 6C7 6.23676 7.04072 6.46184 7.11469 6.66999C7.22686 6.98559 7.17357 7.33638 6.97276 7.60444C6.77194 7.8725 6.45026 8.02222 6.11585 8.00327C6.0776 8.0011 6.03898 8 6 8C4.89543 8 4 8.89543 4 10C4 10.5129 4.19174 10.9786 4.50903 11.3331C4.84885 11.7128 4.84885 12.2872 4.50903 12.6669C4.19174 13.0214 4 13.4871 4 14C4 14.8842 4.57447 15.6369 5.37327 15.9001C5.84924 16.057 6.1356 16.5419 6.04308 17.0345C6.01489 17.1846 6 17.3401 6 17.5C6 18.8807 7.11929 20 8.5 20C9.75862 20 10.8015 19.069 10.9746 17.8583C10.9806 17.8165 10.9891 17.7756 11 17.7358V6C11 4.89543 10.1046 4 9 4C7.89543 4 7 4.89543 7 6ZM13 17.7358C13.0109 17.7756 13.0194 17.8165 13.0254 17.8583C13.1985 19.069 14.2414 20 15.5 20C16.8807 20 18 18.8807 18 17.5C18 17.3401 17.9851 17.1846 17.9569 17.0345C17.8644 16.5419 18.1508 16.057 18.6267 15.9001C19.4255 15.6369 20 14.8842 20 14C20 13.4871 19.8083 13.0214 19.491 12.6669C19.1511 12.2872 19.1511 11.7128 19.491 11.3331C19.8083 10.9786 20 10.5129 20 10C20 8.89543 19.1046 8 18 8C17.961 8 17.9224 8.0011 17.8841 8.00327C17.5497 8.02222 17.2281 7.8725 17.0272 7.60444C16.8264 7.33638 16.7731 6.98559 16.8853 6.66999C16.9593 6.46184 17 6.23676 17 6C17 4.89543 16.1046 4 15 4C13.8954 4 13 4.89543 13 6V17.7358ZM9 2C10.1947 2 11.2671 2.52376 12 3.35418C12.7329 2.52376 13.8053 2 15 2C17.2091 2 19 3.79086 19 6C19 6.04198 18.9994 6.08382 18.9981 6.12552C20.7243 6.56889 22 8.13546 22 10C22 10.728 21.8049 11.4116 21.4646 12C21.8049 12.5884 22 13.272 22 14C22 15.4817 21.1949 16.7734 19.9999 17.4646L20 17.5C20 19.9853 17.9853 22 15.5 22C14.0859 22 12.8248 21.3481 12 20.3285C11.1752 21.3481 9.91405 22 8.5 22C6.01472 22 4 19.9853 4 17.5L4.00014 17.4646C2.80512 16.7734 2 15.4817 2 14C2 13.272 2.19513 12.5884 2.53536 12C2.19513 11.4116 2 10.728 2 10C2 8.13546 3.27573 6.56889 5.00194 6.12552C5.00065 6.08382 5 6.04198 5 6C5 3.79086 6.79086 2 9 2Z"></path></symbol>
<symbol id="speak-line" viewBox="0 0 24 24"><path d="M16.9337 8.96494C16.426 5.03562 13.0675 2 9 2 4.58172 2 1 5.58172 1 10 1 11.8924 1.65707 13.6313 2.7555 15.0011 3.56351 16.0087 4.00033 17.1252 4.00025 18.3061L4 22H13L13.001 19H15C16.1046 19 17 18.1046 17 17V14.071L18.9593 13.2317C19.3025 13.0847 19.3324 12.7367 19.1842 12.5037L16.9337 8.96494ZM3 10C3 6.68629 5.68629 4 9 4 12.0243 4 14.5665 6.25141 14.9501 9.22118L15.0072 9.66262 16.5497 12.0881 15 12.7519V17H11.0017L11.0007 20H6.00013L6.00025 18.3063C6.00036 16.6672 5.40965 15.114 4.31578 13.7499 3.46818 12.6929 3 11.3849 3 10ZM21.1535 18.1024 19.4893 16.9929C20.4436 15.5642 21 13.8471 21 12.0001 21 10.153 20.4436 8.4359 19.4893 7.00722L21.1535 5.89771C22.32 7.64386 23 9.74254 23 12.0001 23 14.2576 22.32 16.3562 21.1535 18.1024Z"></path></symbol>
<symbol id="sparkling-line" viewBox="0 0 24 24"><path d="M14 4.4375C15.3462 4.4375 16.4375 3.34619 16.4375 2H17.5625C17.5625 3.34619 18.6538 4.4375 20 4.4375V5.5625C18.6538 5.5625 17.5625 6.65381 17.5625 8H16.4375C16.4375 6.65381 15.3462 5.5625 14 5.5625V4.4375ZM1 11C4.31371 11 7 8.31371 7 5H9C9 8.31371 11.6863 11 15 11V13C11.6863 13 9 15.6863 9 19H7C7 15.6863 4.31371 13 1 13V11ZM4.87601 12C6.18717 12.7276 7.27243 13.8128 8 15.124 8.72757 13.8128 9.81283 12.7276 11.124 12 9.81283 11.2724 8.72757 10.1872 8 8.87601 7.27243 10.1872 6.18717 11.2724 4.87601 12ZM17.25 14C17.25 15.7949 15.7949 17.25 14 17.25V18.75C15.7949 18.75 17.25 20.2051 17.25 22H18.75C18.75 20.2051 20.2051 18.75 22 18.75V17.25C20.2051 17.25 18.75 15.7949 18.75 14H17.25Z"></path></symbol>
<symbol id="like-line" viewBox="0 0 24 24"><path d="M12.001 4.52853C14.35 2.42 17.98 2.49 20.2426 4.75736C22.5053 7.02472 22.583 10.637 20.4786 12.993L11.9999 21.485L3.52138 12.993C1.41705 10.637 1.49571 7.01901 3.75736 4.75736C6.02157 2.49315 9.64519 2.41687 12.001 4.52853ZM18.827 6.1701C17.3279 4.66794 14.9076 4.60701 13.337 6.01687L12.0019 7.21524L10.6661 6.01781C9.09098 4.60597 6.67506 4.66808 5.17157 6.17157C3.68183 7.66131 3.60704 10.0473 4.97993 11.6232L11.9999 18.6543L19.0201 11.6232C20.3935 10.0467 20.319 7.66525 18.827 6.1701Z"></path></symbol>
<symbol id="dislike-line" viewBox="0 0 24 24"><path d="M2.80777 1.39355L21.1925 19.7783L19.7783 21.1925L16.0316 17.4456L12 21.4852L3.52154 12.9932C1.48186 10.7095 1.49309 7.2403 3.55524 4.96974L1.39355 2.80777L2.80777 1.39355ZM4.98009 11.6233L12 18.6545L14.6176 16.0316L4.97206 6.38638C3.67816 7.8828 3.67138 10.1211 4.98009 11.6233ZM20.2428 4.75752C22.5054 7.02488 22.5831 10.6372 20.4788 12.9932L18.8442 14.6292L17.4302 13.2152L19.0202 11.6233C20.3937 10.0469 20.3191 7.66541 18.8271 6.17026C17.3281 4.66809 14.9078 4.60717 13.3371 6.01703L12.0021 7.21539L10.6662 6.01796C10.3163 5.70431 9.92487 5.4634 9.51117 5.29488L7.2604 3.04566C8.92926 2.8395 10.6682 3.33385 12.0011 4.52869C14.3502 2.42016 17.9802 2.49016 20.2428 4.75752Z"></path></symbol>
<symbol id="team-line" viewBox="0 0 24 24"><path d="M12 11C14.7614 11 17 13.2386 17 16V22H15V16C15 14.4023 13.7511 13.0963 12.1763 13.0051L12 13C10.4023 13 9.09634 14.2489 9.00509 15.8237L9 16V22H7V16C7 13.2386 9.23858 11 12 11ZM5.5 14C5.77885 14 6.05009 14.0326 6.3101 14.0942C6.14202 14.594 6.03873 15.122 6.00896 15.6693L6 16L6.0007 16.0856C5.88757 16.0456 5.76821 16.0187 5.64446 16.0069L5.5 16C4.7203 16 4.07955 16.5949 4.00687 17.3555L4 17.5V22H2V17.5C2 15.567 3.567 14 5.5 14ZM18.5 14C20.433 14 22 15.567 22 17.5V22H20V17.5C20 16.7203 19.4051 16.0796 18.6445 16.0069L18.5 16C18.3248 16 18.1566 16.03 18.0003 16.0852L18 16C18 15.3343 17.8916 14.694 17.6915 14.0956C17.9499 14.0326 18.2211 14 18.5 14ZM5.5 8C6.88071 8 8 9.11929 8 10.5C8 11.8807 6.88071 13 5.5 13C4.11929 13 3 11.8807 3 10.5C3 9.11929 4.11929 8 5.5 8ZM18.5 8C19.8807 8 21 9.11929 21 10.5C21 11.8807 19.8807 13 18.5 13C17.1193 13 16 11.8807 16 10.5C16 9.11929 17.1193 8 18.5 8ZM5.5 10C5.22386 10 5 10.2239 5 10.5C5 10.7761 5.22386 11 5.5 11C5.77614 11 6 10.7761 6 10.5C6 10.2239 5.77614 10 5.5 10ZM18.5 10C18.2239 10 18 10.2239 18 10.5C18 10.7761 18.2239 11 18.5 11C18.7761 11 19 10.7761 19 10.5C19 10.2239 18.7761 10 18.5 10ZM12 2C14.2091 2 16 3.79086 16 6C16 8.20914 14.2091 10 12 10C9.79086 10 8 8.20914 8 6C8 3.79086 9.79086 2 12 2ZM12 4C10.8954 4 10 4.89543 10 6C10 7.10457 10.8954 8 12 8C13.1046 8 14 7.10457 14 6C14 4.89543 13.1046 4 12 4Z"></path></symbol>
<symbol id="advertisement-line" viewBox="0 0 24 24"><path d="M12.598 16 9.39893 8H7.39893L5.39893 13 5.39795 13.002 4.19897 16H6.35303L6.75293 15H10.043L10.443 16H12.598ZM7.552 13 8.39893 10.8851 9.24402 13H7.552ZM17 8H19V16H16C14.3431 16 13 14.6569 13 13 13 11.3431 14.3431 10 16 10H17V8ZM16 12C15.4478 12 15 12.4478 15 13 15 13.5522 15.4478 14 16 14H17V12H16ZM21 3H3C2.44775 3 2 3.44775 2 4V20C2 20.5522 2.44775 21 3 21H21C21.5522 21 22 20.5522 22 20V4C22 3.44775 21.5522 3 21 3ZM4 19V5H20V19H4Z"></path></symbol>
<symbol id="function-line" viewBox="0 0 24 24"><path d="m24,11.986c0-1.93-1.57-3.5-3.5-3.5-.006,0-.011.002-.016.002l-1.551-2.481c.656-.637,1.067-1.523,1.067-2.507,0-1.93-1.57-3.5-3.5-3.5-1.58,0-2.903,1.059-3.337,2.5h-2.326c-.434-1.441-1.757-2.5-3.337-2.5-1.93,0-3.5,1.57-3.5,3.5,0,.984.411,1.87,1.067,2.507l-1.551,2.481c-.006,0-.011-.002-.016-.002-1.93,0-3.5,1.57-3.5,3.5s1.57,3.5,3.5,3.5l1.567,2.507c-.656.637-1.067,1.523-1.067,2.507,0,1.93,1.57,3.5,3.5,3.5,1.58,0,2.903-1.059,3.337-2.5h2.326c.434,1.441,1.757,2.5,3.337,2.5,1.93,0,3.5-1.57,3.5-3.5,0-.984-.411-1.87-1.067-2.507l1.567-2.507c1.93,0,3.5-1.57,3.5-3.5Zm-2,0c0,.827-.673,1.5-1.5,1.5s-1.5-.673-1.5-1.5.673-1.5,1.5-1.5,1.5.673,1.5,1.5Zm-5.5-9.986c.827,0,1.5.673,1.5,1.5s-.673,1.5-1.5,1.5-1.5-.673-1.5-1.5.673-1.5,1.5-1.5Zm-9,0c.827,0,1.5.673,1.5,1.5s-.673,1.5-1.5,1.5-1.5-.673-1.5-1.5.673-1.5,1.5-1.5ZM2,11.986c0-.827.673-1.5,1.5-1.5s1.5.673,1.5,1.5-.673,1.5-1.5,1.5-1.5-.673-1.5-1.5Zm5.5,10.014c-.827,0-1.5-.673-1.5-1.5s.673-1.5,1.5-1.5,1.5.673,1.5,1.5-.673,1.5-1.5,1.5Zm9,0c-.827,0-1.5-.673-1.5-1.5s.673-1.5,1.5-1.5,1.5.673,1.5,1.5-.673,1.5-1.5,1.5Zm0-5c-1.58,0-2.903,1.059-3.337,2.5h-2.326c-.434-1.441-1.757-2.5-3.337-2.5-.224,0-.442.026-.655.066l-1.371-2.194c.92-.631,1.526-1.689,1.526-2.886s-.602-2.245-1.515-2.877l1.36-2.176c.213.041.431.066.655.066,1.58,0,2.903-1.059,3.337-2.5h2.326c.434,1.441,1.757,2.5,3.337,2.5.224,0,.442-.026.655-.066l1.36,2.176c-.913.632-1.515,1.685-1.515,2.877s.606,2.255,1.526,2.886l-1.371,2.194c-.213-.04-.43-.066-.655-.066Zm-.168-7.496c-.275-.478-.886-.644-1.365-.367l-.568.327c-.391-.37-.87-.642-1.399-.801v-.663c0-.552-.447-1-1-1s-1,.448-1,1v.663c-.529.159-1.007.431-1.399.801l-.568-.327c-.479-.277-1.091-.111-1.365.367-.276.479-.111,1.09.367,1.366l.567.327c-.061.259-.102.526-.102.804s.041.544.102.803l-.568.328c-.479.276-.643.888-.366,1.366.186.32.521.5.867.5.17,0,.342-.043.499-.134l.567-.328c.391.37.87.642,1.398.801v.663c0,.553.447,1,1,1s1-.447,1-1v-.663c.529-.159,1.007-.431,1.398-.801l.568.328c.157.091.329.134.498.134.346,0,.683-.18.867-.501.276-.479.111-1.09-.367-1.365l-.567-.327c.061-.259.102-.526.102-.804s-.041-.544-.102-.804l.567-.327c.479-.275.644-.887.367-1.366Zm-4.332,3.996c-.827,0-1.5-.673-1.5-1.5s.673-1.5,1.5-1.5,1.5.673,1.5,1.5-.673,1.5-1.5,1.5Z"/></symbol>
<symbol id="stories-line" viewBox="0 0 24 24"><path d="m8,13c2.206,0,4-1.794,4-4s-1.794-4-4-4-4,1.794-4,4,1.794,4,4,4Zm0-6c1.103,0,2,.897,2,2s-.897,2-2,2-2-.897-2-2,.897-2,2-2Zm7,14.5v1.5c0,.553-.448,1-1,1s-1-.447-1-1v-1.5c0-2.481-2.019-4.5-4.5-4.5H2c-1.103,0-2-.897-2-2V6c0-.553.448-1,1-1s1,.447,1,1v9h6.5c3.584,0,6.5,2.916,6.5,6.5ZM23.121.878c-.567-.566-1.319-.878-2.12-.878h-.003l-4,.002c-1.654,0-2.999,1.348-2.998,3v6.207s.001,0,.001,0c0,.653.357,1.255.931,1.568.268.147.563.22.859.22.335,0,.671-.094.964-.281.067-.043.13-.095.185-.152l1.488-1.56,2.575-.003c1.652,0,2.997-1.348,2.997-3v-3.002c0-.802-.312-1.555-.879-2.122Zm-1.121,5.124c0,.551-.448.999-.999,1l-3.002.003c-.273,0-.534.112-.723.31l-1.275,1.337V3.002c-.001-.551.447-.999.998-1l4-.002h0c.267,0,.517.104.706.293.189.188.293.439.293.707v3.002ZM5.284,20.334c-.188.532-.284,1.093-.284,1.666v1c0,.553-.448,1-1,1s-1-.447-1-1v-1c0-.801.134-1.586.398-2.334.185-.521.758-.793,1.276-.608.521.184.793.756.609,1.276Z"/></symbol>

<!-- Tabbar -->
<symbol id="futubra-line" viewBox="0 0 24 24"><path d="m19,0H5C2.243,0,0,2.243,0,5v14c0,2.757,2.243,5,5,5h14c2.757,0,5-2.243,5-5V5c0-2.757-2.243-5-5-5Zm3,19c0,1.654-1.346,3-3,3H5c-1.654,0-3-1.346-3-3V5c0-1.654,1.346-3,3-3h14c1.654,0,3,1.346,3,3v14Zm-4-13c0,.552-.447,1-1,1h-7c-1.103,0-2,.897-2,2v2h6c.553,0,1,.448,1,1s-.447,1-1,1h-6v5c0,.552-.447,1-1,1s-1-.448-1-1v-9c0-2.206,1.794-4,4-4h7c.553,0,1,.448,1,1Z"/></symbol>
<symbol id="home-line" viewBox="0 0 24 24"><path d="M19,24H5c-2.757,0-5-2.243-5-5V9.724c0-1.665,.824-3.215,2.204-4.145L9.203,.855c1.699-1.146,3.895-1.146,5.594,0l7,4.724c1.379,.93,2.203,2.479,2.203,4.145v9.276c0,2.757-2.243,5-5,5ZM12,1.997c-.584,0-1.168,.172-1.678,.517L3.322,7.237c-.828,.558-1.322,1.487-1.322,2.486v9.276c0,1.654,1.346,3,3,3h14c1.654,0,3-1.346,3-3V9.724c0-.999-.494-1.929-1.321-2.486L13.678,2.514c-.51-.345-1.094-.517-1.678-.517Z"/></symbol>
<symbol id="search-line" viewBox="0 0 24 24"><path d="M23.707,22.293l-5.969-5.969a10.016,10.016,0,1,0-1.414,1.414l5.969,5.969a1,1,0,0,0,1.414-1.414ZM10,18a8,8,0,1,1,8-8A8.009,8.009,0,0,1,10,18Z"/></symbol>
<symbol id="edit-line" viewBox="0 0 24 24"><path d="M18.656.93,6.464,13.122A4.966,4.966,0,0,0,5,16.657V18a1,1,0,0,0,1,1H7.343a4.966,4.966,0,0,0,3.535-1.464L23.07,5.344a3.125,3.125,0,0,0,0-4.414A3.194,3.194,0,0,0,18.656.93Zm3,3L9.464,16.122A3.02,3.02,0,0,1,7.343,17H7v-.343a3.02,3.02,0,0,1,.878-2.121L20.07,2.344a1.148,1.148,0,0,1,1.586,0A1.123,1.123,0,0,1,21.656,3.93Z"/><path d="M23,8.979a1,1,0,0,0-1,1V15H18a3,3,0,0,0-3,3v4H5a3,3,0,0,1-3-3V5A3,3,0,0,1,5,2h9.042a1,1,0,0,0,0-2H5A5.006,5.006,0,0,0,0,5V19a5.006,5.006,0,0,0,5,5H16.343a4.968,4.968,0,0,0,3.536-1.464l2.656-2.658A4.968,4.968,0,0,0,24,16.343V9.979A1,1,0,0,0,23,8.979ZM18.465,21.122a2.975,2.975,0,0,1-1.465.8V18a1,1,0,0,1,1-1h3.925a3.016,3.016,0,0,1-.8,1.464Z"/></symbol>
<symbol id="bell-line" viewBox="0 0 24 24"><path d="M22.555,13.662l-1.9-6.836A9.321,9.321,0,0,0,2.576,7.3L1.105,13.915A5,5,0,0,0,5.986,20H7.1a5,5,0,0,0,9.8,0h.838a5,5,0,0,0,4.818-6.338ZM12,22a3,3,0,0,1-2.816-2h5.632A3,3,0,0,1,12,22Zm8.126-5.185A2.977,2.977,0,0,1,17.737,18H5.986a3,3,0,0,1-2.928-3.651l1.47-6.616a7.321,7.321,0,0,1,14.2-.372l1.9,6.836A2.977,2.977,0,0,1,20.126,16.815Z"/></symbol>
<symbol id="user-line" viewBox="0 0 24 24"><path d="M12,12A6,6,0,1,0,6,6,6.006,6.006,0,0,0,12,12ZM12,2A4,4,0,1,1,8,6,4,4,0,0,1,12,2Z"/><path d="M12,14a9.01,9.01,0,0,0-9,9,1,1,0,0,0,2,0,7,7,0,0,1,14,0,1,1,0,0,0,2,0A9.01,9.01,0,0,0,12,14Z"/></symbol>
<symbol id="menu-line" viewBox="0 0 24 24"><path d="M0,4c0-.55,.45-1,1-1H18c.55,0,1,.45,1,1s-.45,1-1,1H1c-.55,0-1-.45-1-1Zm18,15H1c-.55,0-1,.45-1,1s.45,1,1,1H18c.55,0,1-.45,1-1s-.45-1-1-1Zm5-8H6c-.55,0-1,.45-1,1s.45,1,1,1H23c.55,0,1-.45,1-1s-.45-1-1-1Z"/></symbol>
<symbol id="login-line" viewBox="0 0 24 24"><path d="M18.9,0H5.1A5.055,5.055,0,0,0,0,5V8A1,1,0,0,0,2,8V5A3.054,3.054,0,0,1,5.1,2H18.9A3.054,3.054,0,0,1,22,5V19a3.054,3.054,0,0,1-3.1,3H5.1A3.054,3.054,0,0,1,2,19V16a1,1,0,0,0-2,0v3a5.055,5.055,0,0,0,5.1,5H18.9A5.055,5.055,0,0,0,24,19V5A5.055,5.055,0,0,0,18.9,0Z"/><path d="M3,12a1,1,0,0,0,1,1H4l13.188-.03-4.323,4.323a1,1,0,1,0,1.414,1.414l4.586-4.586a3,3,0,0,0,0-4.242L14.281,5.293a1,1,0,0,0-1.414,1.414l4.262,4.263L4,11A1,1,0,0,0,3,12Z"/></symbol>

<!-- Other -->
<symbol id="cross-line" viewBox="0 0 24 24"><path d="M23.707.293h0a1,1,0,0,0-1.414,0L12,10.586,1.707.293a1,1,0,0,0-1.414,0h0a1,1,0,0,0,0,1.414L10.586,12,.293,22.293a1,1,0,0,0,0,1.414h0a1,1,0,0,0,1.414,0L12,13.414,22.293,23.707a1,1,0,0,0,1.414,0h0a1,1,0,0,0,0-1.414L13.414,12,23.707,1.707A1,1,0,0,0,23.707.293Z"/></symbol>
<symbol id="videos-line" viewBox="0 0 24 24"><path d="m19 24h-14a5.006 5.006 0 0 1 -5-5v-14a5.006 5.006 0 0 1 5-5h14a5.006 5.006 0 0 1 5 5v14a5.006 5.006 0 0 1 -5 5zm-14-22a3 3 0 0 0 -3 3v14a3 3 0 0 0 3 3h14a3 3 0 0 0 3-3v-14a3 3 0 0 0 -3-3zm4.342 15.005a2.368 2.368 0 0 1 -1.186-.323 2.313 2.313 0 0 1 -1.164-2.021v-5.322a2.337 2.337 0 0 1 3.5-2.029l5.278 2.635a2.336 2.336 0 0 1 .049 4.084l-5.376 2.687a2.2 2.2 0 0 1 -1.101.289zm-.025-8a.314.314 0 0 0 -.157.042.327.327 0 0 0 -.168.292v5.322a.337.337 0 0 0 .5.293l5.376-2.688a.314.314 0 0 0 .12-.266.325.325 0 0 0 -.169-.292l-5.274-2.635a.462.462 0 0 0 -.228-.068z"/></symbol>
<symbol id="send-line" viewBox="0 0 24 24"><path d="m21.916,8.727L3.965.282C2.951-.211,1.756-.041.917.713.076,1.47-.216,2.646.172,3.708c.017.043,4.411,8.296,4.411,8.296,0,0-4.313,8.251-4.328,8.293-.387,1.063-.092,2.237.749,2.993.521.467,1.179.708,1.841.708.409,0,.819-.092,1.201-.279l17.872-8.438c1.285-.603,2.083-1.859,2.082-3.278,0-1.42-.801-2.675-2.084-3.275ZM2.032,2.967c-.122-.415.138-.69.223-.768.089-.079.414-.324.838-.116.005.002,17.974,8.455,17.974,8.455.239.112.438.27.591.462H6.315L2.032,2.967Zm19.034,10.504L3.178,21.917c-.425.209-.749-.035-.838-.116-.086-.076-.346-.353-.223-.769l4.202-8.032h15.345c-.153.195-.355.357-.597.471Z"/></symbol>
<symbol id="square-check-line" viewBox="0 0 24 24"><path d="M19,0H5A5.006,5.006,0,0,0,0,5V19a5.006,5.006,0,0,0,5,5H19a5.006,5.006,0,0,0,5-5V5A5.006,5.006,0,0,0,19,0Zm3,19a3,3,0,0,1-3,3H5a3,3,0,0,1-3-3V5A3,3,0,0,1,5,2H19a3,3,0,0,1,3,3Z"/><path d="M9.333,15.919,5.414,12A1,1,0,0,0,4,12H4a1,1,0,0,0,0,1.414l3.919,3.919a2,2,0,0,0,2.829,0L20,8.081a1,1,0,0,0,0-1.414h0a1,1,0,0,0-1.414,0Z"/></symbol>
<symbol id="check-line" viewBox="0 0 24 24"><path d="M22.319,4.431,8.5,18.249a1,1,0,0,1-1.417,0L1.739,12.9a1,1,0,0,0-1.417,0h0a1,1,0,0,0,0,1.417l5.346,5.345a3.008,3.008,0,0,0,4.25,0L23.736,5.847a1,1,0,0,0,0-1.416h0A1,1,0,0,0,22.319,4.431Z"/></symbol>
<symbol id="double-check-line" viewBox="0 0 24 24"><path d="m1.283,7.697c-.385-.396-.375-1.029.021-1.414.396-.385,1.03-.376,1.414.021l4.089,4.211c.307.31.729.485,1.176.486.445,0,.864-.173,1.179-.488L18.29,1.296c.388-.394,1.021-.396,1.414-.007.393.389.396,1.022.007,1.414l-9.131,9.219c-.696.696-1.624,1.078-2.604,1.078-.982-.002-1.904-.387-2.596-1.085L1.283,7.697Zm22.423-.405c-.391-.391-1.025-.389-1.414.002l-13.087,13.12c-.378.378-.884.586-1.418.586-.536,0-1.039-.212-1.423-.599L1.699,15.784c-.394-.388-1.026-.386-1.415.008-.388.393-.385,1.025.007,1.414l4.659,4.61c.755.761,1.761,1.181,2.833,1.184,1.068,0,2.081-.416,2.837-1.173l13.088-13.121c.39-.391.389-1.024-.002-1.414Z"/></symbol>
<symbol id="verify-fill" viewBox="0 0 24 24"><path d="m23.126,9.868h0l-2.151-2.154v-1.718c0-1.651-1.342-2.995-2.991-2.995h-1.716l-2.151-2.153c-1.131-1.131-3.101-1.131-4.231,0l-2.151,2.153h-1.716c-1.65,0-2.991,1.343-2.991,2.995v1.718l-2.152,2.154c-1.165,1.168-1.165,3.067,0,4.235l2.151,2.154v1.718c0,1.651,1.342,2.995,2.991,2.995h1.716l2.151,2.153c.565.565,1.317.877,2.116.877s1.55-.312,2.115-.877l2.151-2.153h1.716c1.65,0,2.991-1.343,2.991-2.995v-1.718l2.152-2.154c1.165-1.168,1.165-3.067,0-4.235Zm-4.922.343l-5.054,4.995c-.614.61-1.423.916-2.231.916s-1.613-.305-2.229-.913l-2.599-2.499c-.392-.389-.396-1.021-.007-1.414.39-.391,1.021-.396,1.415-.007l2.598,2.498c.453.449,1.19.45,1.644,0l5.055-4.996c.394-.39,1.026-.386,1.415.007s.385,1.025-.007,1.414Z"/></symbol>
<symbol id="plant-line" viewBox="0 0 24 24"><path d="m22.271,15.156c-4.394-.756-7.427,1.354-9.271,3.768v-4.169c.197-.109.382-.242.536-.412.637-.706,1.074-1.454,1.296-2.207.82.138,1.633.054,2.259-.071.571-.114,1.069-.468,1.367-.972.302-.511.372-1.127.192-1.692-.173-.549-.462-1.248-.929-1.876.467-.628.756-1.327.929-1.876.18-.565.109-1.182-.192-1.693-.298-.503-.796-.858-1.366-.971-.625-.125-1.434-.208-2.246-.074-.215-.755-.652-1.501-1.31-2.23-.781-.867-2.291-.868-3.073,0-.657.729-1.094,1.475-1.309,2.229-.814-.133-1.622-.05-2.245.074-.571.114-1.07.468-1.367.972-.301.51-.372,1.127-.193,1.691.173.546.46,1.241.922,1.867-.462.625-.749,1.32-.921,1.866-.179.565-.109,1.182.192,1.692.298.504.796.858,1.368.972.625.125,1.436.208,2.253.072.22.759.659,1.514,1.301,2.226.154.171.339.303.536.413v4.142c-1.847-2.399-4.874-4.485-9.246-3.741-1.066.182-1.812,1.126-1.699,2.15.208,1.893,1.039,3.427,2.469,4.561,2.318,1.839,5.687,2.161,7.763,2.161.841,0,1.464-.052,1.726-.079.262.026.884.079,1.725.079,2.077,0,5.446-.322,7.764-2.161,1.43-1.134,2.261-2.668,2.469-4.561.112-1.024-.634-1.969-1.699-2.15Zm-11.76-5.219c-.157-.093-.333-.14-.51-.14-.165,0-.33.041-.479.122-.708.388-1.695.269-2.221.165l-.044-.1c.168-.531.48-1.258,1.012-1.7.229-.19.361-.472.361-.769s-.132-.579-.361-.769c-.532-.442-.844-1.169-1.012-1.7,0,0,.044-.099.044-.099.524-.105,1.51-.222,2.221.165.296.162.652.164.949.005.297-.158.495-.455.526-.789.01-.111.024-.255.006-.412.028-.59.346-1.227.948-1.896h.101c.63.7.949,1.365.949,1.979v.234c0,.353.186.68.489.86.305.181.681.187.989.018.711-.387,1.697-.269,2.221-.165,0,0,.044.1.045.1-.169.535-.483,1.265-1.021,1.707-.23.19-.364.473-.364.772s.134.583.365.772c.536.441.851,1.171,1.02,1.706,0,0-.044.1-.044.1-.524.104-1.511.223-2.222-.164-.31-.169-.686-.162-.989.018s-.489.507-.489.86v.182c0,.787-.516,1.524-.949,2.004h-.102c-.433-.48-.949-1.218-.949-2.004v-.203c0-.353-.186-.68-.49-.86Zm-6.748,10.361c-1.007-.801-1.57-1.851-1.672-3.171.502-.085.979-.125,1.431-.125,4.07,0,6.184,3.203,7.055,5.021-1.758.035-4.861-.174-6.813-1.725Zm16.5,0c-1.952,1.551-5.064,1.761-6.812,1.725.97-2.021,3.485-5.763,8.532-4.935-.149,1.359-.712,2.409-1.72,3.21Zm-8.262-11.285c-.828,0-1.5-.672-1.5-1.5s.672-1.5,1.5-1.5,1.5.672,1.5,1.5-.672,1.5-1.5,1.5Z"/></symbol>
<symbol id="chevron-line" viewBox="0 0 24 24"><path d="M15.4,9.88,10.81,5.29a1,1,0,0,0-1.41,0,1,1,0,0,0,0,1.42L14,11.29a1,1,0,0,1,0,1.42L9.4,17.29a1,1,0,0,0,1.41,1.42l4.59-4.59A3,3,0,0,0,15.4,9.88Z"/></symbol>
<symbol id="compose-line" viewBox="0 0 24 24"><path d="M18.656.93,6.464,13.122A4.966,4.966,0,0,0,5,16.657V18a1,1,0,0,0,1,1H7.343a4.966,4.966,0,0,0,3.535-1.464L23.07,5.344a3.125,3.125,0,0,0,0-4.414A3.194,3.194,0,0,0,18.656.93Zm3,3L9.464,16.122A3.02,3.02,0,0,1,7.343,17H7v-.343a3.02,3.02,0,0,1,.878-2.121L20.07,2.344a1.148,1.148,0,0,1,1.586,0A1.123,1.123,0,0,1,21.656,3.93Z"/><path d="M23,8.979a1,1,0,0,0-1,1V15H18a3,3,0,0,0-3,3v4H5a3,3,0,0,1-3-3V5A3,3,0,0,1,5,2h9.042a1,1,0,0,0,0-2H5A5.006,5.006,0,0,0,0,5V19a5.006,5.006,0,0,0,5,5H16.343a4.968,4.968,0,0,0,3.536-1.464l2.656-2.658A4.968,4.968,0,0,0,24,16.343V9.979A1,1,0,0,0,23,8.979ZM18.465,21.122a2.975,2.975,0,0,1-1.465.8V18a1,1,0,0,1,1-1h3.925a3.016,3.016,0,0,1-.8,1.464Z"/></symbol>
<symbol id="link-line" viewBox="0 0 24 24"><path d="M13.845,17.267l-3.262,3.262A5.028,5.028,0,0,1,3.472,13.42l3.262-3.265A1,1,0,0,0,5.319,8.741L2.058,12.006A7.027,7.027,0,0,0,12,21.943l3.262-3.262a1,1,0,0,0-1.414-1.414Z"/><path d="M21.944,2.061A6.979,6.979,0,0,0,16.975,0h0a6.983,6.983,0,0,0-4.968,2.057L8.74,5.32a1,1,0,0,0,1.414,1.415l3.265-3.262A4.993,4.993,0,0,1,16.973,2h0a5.028,5.028,0,0,1,3.554,8.583l-3.262,3.262A1,1,0,1,0,18.68,15.26L21.942,12A7.037,7.037,0,0,0,21.944,2.061Z"/><path d="M14.293,8.293l-6,6a1,1,0,1,0,1.414,1.414l6-6a1,1,0,0,0-1.414-1.414Z"/></symbol>
<symbol id="unlink-line" viewBox="0 0 24 24"><path d="M4.262,9.772c.391-.389,1.023-.388,1.414,.002,.391,.391,.389,1.024-.002,1.415l-2.197,2.189c-.952,.952-1.477,2.218-1.477,3.564,0,1.346,.524,2.612,1.477,3.564,.955,.956,2.223,1.486,3.569,1.493,1.335,0,2.616-.518,3.558-1.458l2.208-2.215c.39-.391,1.022-.393,1.414-.002,.391,.39,.393,1.023,.002,1.415l-2.209,2.216c-1.32,1.32-3.113,2.045-4.983,2.045-1.877-.01-3.643-.749-4.973-2.079C.732,20.591,0,18.823,0,16.943c0-1.881,.732-3.649,2.063-4.98l2.198-2.191Zm4.267,4.284l-.801,.801c-.391,.391-.391,1.023,0,1.414,.195,.195,.451,.293,.707,.293s.512-.098,.707-.293l.801-.801c.391-.391,.391-1.023,0-1.414s-1.023-.391-1.414,0ZM.293,.293c.391-.391,1.023-.391,1.414,0L7.726,6.312l.003-.005L11.981,2.062C13.312,.732,15.079,0,16.96,0s3.648,.732,4.978,2.062c1.33,1.33,2.062,3.098,2.062,4.979s-.732,3.648-2.062,4.978l-4.245,4.253-.005,.003,6.019,6.019c.391,.391,.391,1.023,0,1.414-.195,.195-.451,.293-.707,.293s-.512-.098-.707-.293L.293,1.707c-.391-.391-.391-1.023,0-1.414ZM11.999,10.585l2.859-2.859c.391-.391,1.023-.391,1.414,0s.391,1.024,0,1.414l-2.859,2.859,2.862,2.862,.002-.003,4.246-4.253c.952-.952,1.477-2.218,1.477-3.564s-.524-2.612-1.477-3.564-2.218-1.476-3.563-1.476-2.612,.524-3.565,1.477l-4.253,4.246-.003,.002,2.86,2.86Z"/></symbol>
<symbol id="heart-crack-line" viewBox="0 0 24 24"><path d="M17.5,1c-2.31,0-4.35,1.31-5.5,3.27-1.15-1.96-3.19-3.27-5.5-3.27C2.92,1,0,4.14,0,8c0,4.61,4.73,9.51,8.7,12.81,.96,.79,2.13,1.19,3.3,1.19s2.34-.4,3.3-1.19c3.97-3.3,8.7-8.21,8.7-12.81,0-3.86-2.92-7-6.5-7Zm-3.48,18.28c-1.17,.97-2.87,.97-4.04,0-2.98-2.48-7.98-7.24-7.98-11.28,0-2.71,2.06-5,4.5-5s4.29,2.07,4.49,4.6l-1.31,1.31c-.9,.9-.9,2.36,0,3.26l2.34,2.4-1.72,1.72c-.39,.39-.39,1.02,0,1.41s1.02,.39,1.41,0l1.72-1.72c.8-.8,.8-2.1,0-2.9l-2.34-2.34c-.07-.07-.09-.16-.09-.22s.02-.14,.09-.22l1.62-1.62s.02-.02,.02-.02h0s0,0,0,0h0c.17-.18,.27-.42,.27-.68,0-2.71,2.06-5,4.5-5s4.5,2.29,4.5,5c0,4.03-5,8.8-7.98,11.28Z"/></symbol>
<symbol id="palette-line" viewBox="0 0 24 24"><path d="M17.115,8.05A1.5,1.5,0,1,0,18.95,9.115,1.5,1.5,0,0,0,17.115,8.05Z"/><path d="M12.115,5.05A1.5,1.5,0,1,0,13.95,6.115,1.5,1.5,0,0,0,12.115,5.05Z"/><path d="M7.115,8.05A1.5,1.5,0,1,0,8.95,9.115,1.5,1.5,0,0,0,7.115,8.05Z"/><path d="M7.115,14.05A1.5,1.5,0,1,0,8.95,15.115,1.5,1.5,0,0,0,7.115,14.05Z"/><path d="M12.5.007A12,12,0,0,0,.083,12a12.014,12.014,0,0,0,12,12c.338,0,.67-.022,1-.05a1,1,0,0,0,.916-1l-.032-3.588A3.567,3.567,0,0,1,20.057,16.8l.1.1a1.912,1.912,0,0,0,1.769.521,1.888,1.888,0,0,0,1.377-1.177A11.924,11.924,0,0,0,24.08,11.7,12.155,12.155,0,0,0,12.5.007Zm8.982,15.4-.014-.014a5.567,5.567,0,0,0-9.5,3.985L11.992,22a10,10,0,0,1,.09-20c.117,0,.235,0,.353.006a10.127,10.127,0,0,1,9.645,9.743A9.892,9.892,0,0,1,21.485,15.4Z"/></symbol>
<symbol id="external-line" viewBox="0 0 24 24"><path d="M20,11v8c0,2.757-2.243,5-5,5H5c-2.757,0-5-2.243-5-5V9c0-2.757,2.243-5,5-5H13c.552,0,1,.448,1,1s-.448,1-1,1H5c-1.654,0-3,1.346-3,3v10c0,1.654,1.346,3,3,3H15c1.654,0,3-1.346,3-3V11c0-.552,.448-1,1-1s1,.448,1,1ZM21,0h-7c-.552,0-1,.448-1,1s.448,1,1,1h6.586L8.293,14.293c-.391,.391-.391,1.023,0,1.414,.195,.195,.451,.293,.707,.293s.512-.098,.707-.293L22,3.414v6.586c0,.552,.448,1,1,1s1-.448,1-1V3c0-1.654-1.346-3-3-3Z"/></symbol>
<symbol id="spark-line" viewBox="0 0 24 24"><path d="M19.5,24a1,1,0,0,1-.929-.628l-.844-2.113-2.116-.891a1.007,1.007,0,0,1,.035-1.857l2.088-.791.837-2.092a1.008,1.008,0,0,1,1.858,0l.841,2.1,2.1.841a1.007,1.007,0,0,1,0,1.858l-2.1.841-.841,2.1A1,1,0,0,1,19.5,24ZM10,21a2,2,0,0,1-1.936-1.413L6.45,14.54,1.387,12.846a2.032,2.032,0,0,1,.052-3.871L6.462,7.441,8.154,2.387A1.956,1.956,0,0,1,10.108,1a2,2,0,0,1,1.917,1.439l1.532,5.015,5.03,1.61a2.042,2.042,0,0,1,0,3.872h0l-5.039,1.612-1.612,5.039A2,2,0,0,1,10,21Zm.112-17.977L8.2,8.564a1,1,0,0,1-.656.64L2.023,10.888l5.541,1.917a1,1,0,0,1,.636.643l1.77,5.53,1.83-5.53a1,1,0,0,1,.648-.648l5.53-1.769a.072.072,0,0,0,.02-.009L12.448,9.2a1,1,0,0,1-.652-.661Zm8.17,8.96h0ZM20.5,7a1,1,0,0,1-.97-.757l-.357-1.43L17.74,4.428a1,1,0,0,1,.034-1.94l1.4-.325L19.53.757a1,1,0,0,1,1.94,0l.354,1.418,1.418.355a1,1,0,0,1,0,1.94l-1.418.355L21.47,6.243A1,1,0,0,1,20.5,7Z"/></symbol>
<symbol id="filter-line" viewBox="0 0 24 24"><path d="m14 24a1 1 0 0 1 -.6-.2l-4-3a1 1 0 0 1 -.4-.8v-5.62l-7.016-7.893a3.9 3.9 0 0 1 2.916-6.487h14.2a3.9 3.9 0 0 1 2.913 6.488l-7.013 7.892v8.62a1 1 0 0 1 -1 1zm-3-4.5 2 1.5v-7a1 1 0 0 1 .253-.664l7.268-8.177a1.9 1.9 0 0 0 -1.421-3.159h-14.2a1.9 1.9 0 0 0 -1.421 3.158l7.269 8.178a1 1 0 0 1 .252.664z"/></symbol>
<symbol id="filter-fill" viewBox="0 0 24 24"><path d="m14 24a1 1 0 0 1 -.6-.2l-4-3a1 1 0 0 1 -.4-.8v-5.62l-7.016-7.893a3.9 3.9 0 0 1 2.916-6.487h14.2a3.9 3.9 0 0 1 2.913 6.488l-7.013 7.892v8.62a1 1 0 0 1 -1 1z"/></symbol>
<symbol id="settings-slide-line" viewBox="0 0 24 24"><path d="M1,4.75H3.736a3.728,3.728,0,0,0,7.195,0H23a1,1,0,0,0,0-2H10.931a3.728,3.728,0,0,0-7.195,0H1a1,1,0,0,0,0,2ZM7.333,2a1.75,1.75,0,1,1-1.75,1.75A1.752,1.752,0,0,1,7.333,2Z"/><path d="M23,11H20.264a3.727,3.727,0,0,0-7.194,0H1a1,1,0,0,0,0,2H13.07a3.727,3.727,0,0,0,7.194,0H23a1,1,0,0,0,0-2Zm-6.333,2.75A1.75,1.75,0,1,1,18.417,12,1.752,1.752,0,0,1,16.667,13.75Z"/><path d="M23,19.25H10.931a3.728,3.728,0,0,0-7.195,0H1a1,1,0,0,0,0,2H3.736a3.728,3.728,0,0,0,7.195,0H23a1,1,0,0,0,0-2ZM7.333,22a1.75,1.75,0,1,1,1.75-1.75A1.753,1.753,0,0,1,7.333,22Z"/></symbol>
<symbol id="bars-filter-line" viewBox="0 0 24 24"><path d="M24,3c0,.55-.45,1-1,1H1c-.55,0-1-.45-1-1s.45-1,1-1H23c.55,0,1,.45,1,1ZM15,20h-6c-.55,0-1,.45-1,1s.45,1,1,1h6c.55,0,1-.45,1-1s-.45-1-1-1Zm4-9H5c-.55,0-1,.45-1,1s.45,1,1,1h14c.55,0,1-.45,1-1s-.45-1-1-1Z"/></symbol>
<symbol id="bookmarks-fill" viewBox="0 0 24 24"><path d="M2.849,23.55a2.954,2.954,0,0,0,3.266-.644L12,17.053l5.885,5.853a2.956,2.956,0,0,0,2.1.881,3.05,3.05,0,0,0,1.17-.237A2.953,2.953,0,0,0,23,20.779V5a5.006,5.006,0,0,0-5-5H6A5.006,5.006,0,0,0,1,5V20.779A2.953,2.953,0,0,0,2.849,23.55Z"/></symbol>
<symbol id="comments-line" viewBox="0 0 24 24"><path d="M12.009,23.665c-.476,0-.955-.168-1.337-.507l-3.748-3.157h-2.923c-2.206,0-4-1.794-4-4V4C0,1.794,1.794,0,4,0H20c2.206,0,4,1.794,4,4v12c0,2.206-1.794,4-4,4h-2.852l-3.847,3.18c-.362,.322-.825,.484-1.293,.484ZM4,2c-1.103,0-2,.897-2,2v12c0,1.103,.897,2,2,2h3.289c.236,0,.464,.083,.645,.235l4.047,3.41,4.17-3.416c.18-.148,.405-.229,.638-.229h3.212c1.103,0,2-.897,2-2V4c0-1.103-.897-2-2-2H4Z"/></symbol>
<symbol id="comments-fill" viewBox="0 0 24 24"><path d="M12.009,23.665c-.476,0-.956-.168-1.338-.508l-3.748-3.157h-2.923c-2.206,0-4-1.794-4-4V4C0,1.794,1.794,0,4,0h16c2.206,0,4,1.794,4,4v12c0,2.206-1.794,4-4,4h-2.852l-3.847,3.18c-.361,.322-.825,.485-1.292,.485Z"/></symbol>
<symbol id="comments-off-line" viewBox="0 0 24 24"><path d="M23.707,22.293l-1.536-1.536c.538-.813,.829-1.771,.829-2.757v-5.69c0-3.433-1.501-6.648-4.119-8.822C16.373,1.403,13.204,.594,9.962,1.195c-1.838,.343-3.547,1.154-4.991,2.362L1.707,.293C1.316-.098,.684-.098,.293,.293S-.098,1.316,.293,1.707L22.293,23.707c.195,.195,.451,.293,.707,.293s.512-.098,.707-.293c.391-.391,.391-1.023,0-1.414ZM10.329,3.162c2.648-.497,5.232,.167,7.275,1.863,2.127,1.767,3.396,4.489,3.396,7.284v5.69c0,.451-.102,.893-.293,1.293L6.393,4.978c1.151-.925,2.496-1.548,3.936-1.816Zm6.671,18.838c0,.553-.448,1-1,1h-3.015c-3.781,0-7.234-1.509-9.474-4.14C1.474,16.468,.635,13.396,1.149,10.215c.125-.775,.337-1.54,.631-2.272,.204-.513,.787-.764,1.3-.557,.513,.206,.762,.788,.557,1.301-.238,.596-.411,1.217-.513,1.847-.419,2.595,.259,5.092,1.91,7.031,1.859,2.184,4.757,3.436,7.951,3.436h3.015c.552,0,1,.447,1,1Z"/></symbol>
<symbol id="eye-line" viewBox="0 0 24 24"><path d="M23.271,9.419C21.72,6.893,18.192,2.655,12,2.655S2.28,6.893.729,9.419a4.908,4.908,0,0,0,0,5.162C2.28,17.107,5.808,21.345,12,21.345s9.72-4.238,11.271-6.764A4.908,4.908,0,0,0,23.271,9.419Zm-1.705,4.115C20.234,15.7,17.219,19.345,12,19.345S3.766,15.7,2.434,13.534a2.918,2.918,0,0,1,0-3.068C3.766,8.3,6.781,4.655,12,4.655s8.234,3.641,9.566,5.811A2.918,2.918,0,0,1,21.566,13.534Z"/><path d="M12,7a5,5,0,1,0,5,5A5.006,5.006,0,0,0,12,7Zm0,8a3,3,0,1,1,3-3A3,3,0,0,1,12,15Z"/></symbol>
<symbol id="eye-off-line" viewBox="0 0 24 24"><path d="M23.271,9.419A15.866,15.866,0,0,0,19.9,5.51l2.8-2.8a1,1,0,0,0-1.414-1.414L18.241,4.345A12.054,12.054,0,0,0,12,2.655C5.809,2.655,2.281,6.893.729,9.419a4.908,4.908,0,0,0,0,5.162A15.866,15.866,0,0,0,4.1,18.49l-2.8,2.8a1,1,0,1,0,1.414,1.414l3.052-3.052A12.054,12.054,0,0,0,12,21.345c6.191,0,9.719-4.238,11.271-6.764A4.908,4.908,0,0,0,23.271,9.419ZM2.433,13.534a2.918,2.918,0,0,1,0-3.068C3.767,8.3,6.782,4.655,12,4.655A10.1,10.1,0,0,1,16.766,5.82L14.753,7.833a4.992,4.992,0,0,0-6.92,6.92l-2.31,2.31A13.723,13.723,0,0,1,2.433,13.534ZM15,12a3,3,0,0,1-3,3,2.951,2.951,0,0,1-1.285-.3L14.7,10.715A2.951,2.951,0,0,1,15,12ZM9,12a3,3,0,0,1,3-3,2.951,2.951,0,0,1,1.285.3L9.3,13.285A2.951,2.951,0,0,1,9,12Zm12.567,1.534C20.233,15.7,17.218,19.345,12,19.345A10.1,10.1,0,0,1,7.234,18.18l2.013-2.013a4.992,4.992,0,0,0,6.92-6.92l2.31-2.31a13.723,13.723,0,0,1,3.09,3.529A2.918,2.918,0,0,1,21.567,13.534Z"/></symbol>
<symbol id="star-line" viewBox="0 0 24 24"><path d="M23.836,8.794a3.179,3.179,0,0,0-3.067-2.226H16.4L15.073,2.432a3.227,3.227,0,0,0-6.146,0L7.6,6.568H3.231a3.227,3.227,0,0,0-1.9,5.832L4.887,15,3.535,19.187A3.178,3.178,0,0,0,4.719,22.8a3.177,3.177,0,0,0,3.8-.019L12,20.219l3.482,2.559a3.227,3.227,0,0,0,4.983-3.591L19.113,15l3.56-2.6A3.177,3.177,0,0,0,23.836,8.794Zm-2.343,1.991-4.144,3.029a1,1,0,0,0-.362,1.116L18.562,19.8a1.227,1.227,0,0,1-1.895,1.365l-4.075-3a1,1,0,0,0-1.184,0l-4.075,3a1.227,1.227,0,0,1-1.9-1.365L7.013,14.93a1,1,0,0,0-.362-1.116L2.507,10.785a1.227,1.227,0,0,1,.724-2.217h5.1a1,1,0,0,0,.952-.694l1.55-4.831a1.227,1.227,0,0,1,2.336,0l1.55,4.831a1,1,0,0,0,.952.694h5.1a1.227,1.227,0,0,1,.724,2.217Z"/></symbol>
<symbol id="star-fill" viewBox="0 0 24 24"><path d="M1.327,12.4,4.887,15,3.535,19.187A3.178,3.178,0,0,0,4.719,22.8a3.177,3.177,0,0,0,3.8-.019L12,20.219l3.482,2.559a3.227,3.227,0,0,0,4.983-3.591L19.113,15l3.56-2.6a3.227,3.227,0,0,0-1.9-5.832H16.4L15.073,2.432a3.227,3.227,0,0,0-6.146,0L7.6,6.568H3.231a3.227,3.227,0,0,0-1.9,5.832Z"/></symbol>
<symbol id="send-line" viewBox="0 0 24 24"><path d="m21.916,8.727L3.965.282C2.951-.211,1.756-.041.917.713.076,1.47-.216,2.646.172,3.708c.017.043,4.411,8.296,4.411,8.296,0,0-4.313,8.251-4.328,8.293-.387,1.063-.092,2.237.749,2.993.521.467,1.179.708,1.841.708.409,0,.819-.092,1.201-.279l17.872-8.438c1.285-.603,2.083-1.859,2.082-3.278,0-1.42-.801-2.675-2.084-3.275ZM2.032,2.967c-.122-.415.138-.69.223-.768.089-.079.414-.324.838-.116.005.002,17.974,8.455,17.974,8.455.239.112.438.27.591.462H6.315L2.032,2.967Zm19.034,10.504L3.178,21.917c-.425.209-.749-.035-.838-.116-.086-.076-.346-.353-.223-.769l4.202-8.032h15.345c-.153.195-.355.357-.597.471Z"/></symbol>
<symbol id="square-add-line" viewBox="0 0 24 24"><path d="M17,12c0,.553-.448,1-1,1h-3v3c0,.553-.448,1-1,1s-1-.447-1-1v-3h-3c-.552,0-1-.447-1-1s.448-1,1-1h3v-3c0-.553,.448-1,1-1s1,.447,1,1v3h3c.552,0,1,.447,1,1Zm7-7v14c0,2.757-2.243,5-5,5H5c-2.757,0-5-2.243-5-5V5C0,2.243,2.243,0,5,0h14c2.757,0,5,2.243,5,5Zm-2,0c0-1.654-1.346-3-3-3H5c-1.654,0-3,1.346-3,3v14c0,1.654,1.346,3,3,3h14c1.654,0,3-1.346,3-3V5Z"/></symbol>
<symbol id="add-line" viewBox="0 0 24 24"><path d="M23,11H13V1a1,1,0,0,0-1-1h0a1,1,0,0,0-1,1V11H1a1,1,0,0,0-1,1H0a1,1,0,0,0,1,1H11V23a1,1,0,0,0,1,1h0a1,1,0,0,0,1-1V13H23a1,1,0,0,0,1-1h0A1,1,0,0,0,23,11Z"/></symbol>
<symbol id="image-line" viewBox="0 0 24 24"><path d="M19,0H5A5.006,5.006,0,0,0,0,5V19a5.006,5.006,0,0,0,5,5H19a5.006,5.006,0,0,0,5-5V5A5.006,5.006,0,0,0,19,0ZM5,2H19a3,3,0,0,1,3,3V19a2.951,2.951,0,0,1-.3,1.285l-9.163-9.163a5,5,0,0,0-7.072,0L2,14.586V5A3,3,0,0,1,5,2ZM5,22a3,3,0,0,1-3-3V17.414l4.878-4.878a3,3,0,0,1,4.244,0L20.285,21.7A2.951,2.951,0,0,1,19,22Z"/><path d="M16,10.5A3.5,3.5,0,1,0,12.5,7,3.5,3.5,0,0,0,16,10.5Zm0-5A1.5,1.5,0,1,1,14.5,7,1.5,1.5,0,0,1,16,5.5Z"/></symbol>
<symbol id="add-image-line" viewBox="0 0 24 24"><path d="m12,21c0,.553-.448,1-1,1h-6c-2.757,0-5-2.243-5-5V5C0,2.243,2.243,0,5,0h12c2.757,0,5,2.243,5,5v6c0,.553-.448,1-1,1s-1-.447-1-1v-6c0-1.654-1.346-3-3-3H5c-1.654,0-3,1.346-3,3v6.959l2.808-2.808c1.532-1.533,4.025-1.533,5.558,0l5.341,5.341c.391.391.391,1.023,0,1.414-.195.195-.451.293-.707.293s-.512-.098-.707-.293l-5.341-5.341c-.752-.751-1.976-.752-2.73,0l-4.222,4.222v2.213c0,1.654,1.346,3,3,3h6c.552,0,1,.447,1,1ZM15,3.5c1.654,0,3,1.346,3,3s-1.346,3-3,3-3-1.346-3-3,1.346-3,3-3Zm0,2c-.551,0-1,.448-1,1s.449,1,1,1,1-.448,1-1-.449-1-1-1Zm8,12.5h-3v-3c0-.553-.448-1-1-1s-1,.447-1,1v3h-3c-.552,0-1,.447-1,1s.448,1,1,1h3v3c0,.553.448,1,1,1s1-.447,1-1v-3h3c.552,0,1-.447,1-1s-.448-1-1-1Z"/></symbol>
<symbol id="file-image-line" viewBox="0 0 24 24"><path d="m6,9.5c0-.828.672-1.5,1.5-1.5s1.5.672,1.5,1.5-.672,1.5-1.5,1.5-1.5-.672-1.5-1.5Zm16,.985v8.515c0,2.757-2.243,5-5,5H7c-2.757,0-5-2.243-5-5V5C2,2.243,4.243,0,7,0h4.515c1.87,0,3.627.728,4.95,2.05l3.485,3.485c1.322,1.322,2.05,3.08,2.05,4.95Zm-6.95-7.021c-.318-.318-.671-.587-1.05-.805v4.341c0,.551.449,1,1,1h4.341c-.218-.379-.487-.733-.805-1.05l-3.485-3.485Zm-11.05,15.536c0,.028.001.056.002.084l5.06-5.06c1.344-1.345,3.532-1.345,4.876,0l.615.615c.522.521,1.371.521,1.894,0l3.553-3.553v-.601c0-.163-.008-.325-.023-.485h-4.977c-1.654,0-3-1.346-3-3V2.023c-.16-.015-.322-.023-.485-.023h-4.515c-1.654,0-3,1.346-3,3v14Zm16,0v-5.086l-2.139,2.139c-1.302,1.302-3.42,1.302-4.722,0l-.615-.615c-.564-.564-1.483-.564-2.048,0l-5.638,5.638c.546.569,1.313.924,2.162.924h10c1.654,0,3-1.346,3-3Z"/></symbol>
<symbol id="at-line" viewBox="0 0 24 24"><path d="M12,0A12.013,12.013,0,0,0,0,12c-.126,9.573,11.159,15.429,18.9,9.817a1,1,0,1,0-1.152-1.634C11.3,24.856,1.9,19.978,2,12,2.549-1.266,21.453-1.263,22,12v2a2,2,0,0,1-4,0V12C17.748,4.071,6.251,4.072,6,12a6.017,6.017,0,0,0,10.52,3.933A4,4,0,0,0,24,14V12A12.013,12.013,0,0,0,12,0Zm0,16a4,4,0,0,1,0-8A4,4,0,0,1,12,16Z"/></symbol>
<symbol id="user-forbid-line" viewBox="0 0 24 24"><path d="M8 7C8 4.79086 9.79086 3 12 3C14.2091 3 16 4.79086 16 7C16 9.20914 14.2091 11 12 11C9.79086 11 8 9.20914 8 7ZM12 1C8.68629 1 6 3.68629 6 7C6 10.3137 8.68629 13 12 13C15.3137 13 18 10.3137 18 7C18 3.68629 15.3137 1 12 1ZM15 18C15 16.3431 16.3431 15 18 15C18.4631 15 18.9018 15.105 19.2934 15.2924L15.2924 19.2934C15.105 18.9018 15 18.4631 15 18ZM16.7066 20.7076L20.7076 16.7066C20.895 17.0982 21 17.5369 21 18C21 19.6569 19.6569 21 18 21C17.5369 21 17.0982 20.895 16.7066 20.7076ZM18 13C15.2386 13 13 15.2386 13 18C13 20.7614 15.2386 23 18 23C20.7614 23 23 20.7614 23 18C23 15.2386 20.7614 13 18 13ZM12 14C12.0843 14 12.1683 14.0013 12.252 14.0039C11.8236 14.6189 11.4914 15.3059 11.2772 16.0431C8.30431 16.4 6 18.9309 6 22H4C4 17.5817 7.58172 14 12 14Z"></path></symbol>
<symbol id="user-add-line" viewBox="0 0 24 24"><path d="M14 14.252V16.3414C13.3744 16.1203 12.7013 16 12 16C8.68629 16 6 18.6863 6 22H4C4 17.5817 7.58172 14 12 14C12.6906 14 13.3608 14.0875 14 14.252ZM12 13C8.685 13 6 10.315 6 7C6 3.685 8.685 1 12 1C15.315 1 18 3.685 18 7C18 10.315 15.315 13 12 13ZM12 11C14.21 11 16 9.21 16 7C16 4.79 14.21 3 12 3C9.79 3 8 4.79 8 7C8 9.21 9.79 11 12 11ZM18 17V14H20V17H23V19H20V22H18V19H15V17H18Z"></path></symbol>
<symbol id="user-follow-line" viewBox="0 0 24 24"><path d="M14 14.252V16.3414C13.3744 16.1203 12.7013 16 12 16C8.68629 16 6 18.6863 6 22H4C4 17.5817 7.58172 14 12 14C12.6906 14 13.3608 14.0875 14 14.252ZM12 13C8.685 13 6 10.315 6 7C6 3.685 8.685 1 12 1C15.315 1 18 3.685 18 7C18 10.315 15.315 13 12 13ZM12 11C14.21 11 16 9.21 16 7C16 4.79 14.21 3 12 3C9.79 3 8 4.79 8 7C8 9.21 9.79 11 12 11ZM17.7929 19.9142L21.3284 16.3787L22.7426 17.7929L17.7929 22.7426L14.2574 19.2071L15.6716 17.7929L17.7929 19.9142Z"></path></symbol>
<symbol id="user-unfollow-line" viewBox="0 0 24 24"><path d="M14 14.252V16.3414C13.3744 16.1203 12.7013 16 12 16C8.68629 16 6 18.6863 6 22H4C4 17.5817 7.58172 14 12 14C12.6906 14 13.3608 14.0875 14 14.252ZM12 13C8.685 13 6 10.315 6 7C6 3.685 8.685 1 12 1C15.315 1 18 3.685 18 7C18 10.315 15.315 13 12 13ZM12 11C14.21 11 16 9.21 16 7C16 4.79 14.21 3 12 3C9.79 3 8 4.79 8 7C8 9.21 9.79 11 12 11ZM19 17.5858L21.1213 15.4645L22.5355 16.8787L20.4142 19L22.5355 21.1213L21.1213 22.5355L19 20.4142L16.8787 22.5355L15.4645 21.1213L17.5858 19L15.4645 16.8787L16.8787 15.4645L19 17.5858Z"></path></symbol>
<symbol id="user-permissions-line" viewBox="0 0 24 24"><path d="M21,11h-5c-1.654,0-3,1.346-3,3v7c0,1.654,1.346,3,3,3h5c1.654,0,3-1.346,3-3v-7c0-1.654-1.346-3-3-3Zm1,10c0,.551-.448,1-1,1h-5c-.552,0-1-.449-1-1v-7c0-.551,.448-1,1-1h5c.552,0,1,.449,1,1v7Zm-1-5.003c0,.552-.447,1-1,1h-3c-.553,0-1-.448-1-1s.447-1,1-1h3c.553,0,1,.448,1,1Zm0,3.003c0,.552-.447,1-1,1h-3c-.553,0-1-.448-1-1s.447-1,1-1h3c.553,0,1,.448,1,1Zm-12-7c3.309,0,6-2.691,6-6S12.309,0,9,0,3,2.691,3,6s2.691,6,6,6Zm0-10c2.206,0,4,1.794,4,4s-1.794,4-4,4-4-1.794-4-4,1.794-4,4-4Zm2,13c0,.552-.447,1-1,1h-1c-3.859,0-7,3.14-7,7,0,.552-.447,1-1,1s-1-.448-1-1c0-4.962,4.037-9,9-9h1c.553,0,1,.448,1,1Z"/></symbol>
<symbol id="user-history-line" viewBox="0 0 24 24"><path d="m17 24a7 7 0 1 1 7-7 7.008 7.008 0 0 1 -7 7zm0-12a5 5 0 1 0 5 5 5.006 5.006 0 0 0 -5-5zm1.707 6.707a1 1 0 0 0 0-1.414l-.707-.707v-1.586a1 1 0 0 0 -2 0v2a1 1 0 0 0 .293.707l1 1a1 1 0 0 0 1.414 0zm-16.707 4.293a8.3 8.3 0 0 1 6.221-8.024 1 1 0 0 0 -.442-1.952 10.213 10.213 0 0 0 -7.779 9.976 1 1 0 0 0 2 0zm6.474-12a5.5 5.5 0 1 1 5.5-5.5 5.506 5.506 0 0 1 -5.5 5.5zm0-9a3.5 3.5 0 1 0 3.5 3.5 3.5 3.5 0 0 0 -3.5-3.5z"/></symbol>
<symbol id="emoji-line" viewBox="0 0 24 24"><path d="M12,24A12,12,0,1,1,24,12,12.013,12.013,0,0,1,12,24ZM12,2A10,10,0,1,0,22,12,10.011,10.011,0,0,0,12,2Zm5.666,13.746a1,1,0,0,0-1.33-1.494A7.508,7.508,0,0,1,12,16a7.509,7.509,0,0,1-4.334-1.746,1,1,0,0,0-1.332,1.492A9.454,9.454,0,0,0,12,18,9.454,9.454,0,0,0,17.666,15.746ZM6,10c0,1,.895,1,2,1s2,0,2-1a2,2,0,0,0-4,0Zm8,0c0,1,.895,1,2,1s2,0,2-1a2,2,0,0,0-4,0Z"/></symbol>
<symbol id="gif-line" viewBox="0 0 24 24"><path d="M19,0H5A5.006,5.006,0,0,0,0,5V19a5.006,5.006,0,0,0,5,5H16.343a4.969,4.969,0,0,0,3.536-1.465l2.656-2.656A4.969,4.969,0,0,0,24,16.343V5A5.006,5.006,0,0,0,19,0ZM2,19V5A3,3,0,0,1,5,2H19a3,3,0,0,1,3,3V15H18a3,3,0,0,0-3,3v4H5A3,3,0,0,1,2,19Zm16.465,2.121a2.98,2.98,0,0,1-1.465.8V18a1,1,0,0,1,1-1h3.922a2.98,2.98,0,0,1-.8,1.465ZM8,8.75v.334a2,2,0,0,1-2,1.984H6A1.991,1.991,0,0,1,4,9.084v-2.1A1.991,1.991,0,0,1,6,5H6A2.022,2.022,0,0,1,7.772,6.079a.626.626,0,1,1-1.11.58A.779.779,0,0,0,6,6.25.742.742,0,0,0,5.251,7V9.068A.742.742,0,0,0,6,9.819a.759.759,0,0,0,.75-.735V9H6.5a.5.5,0,0,1,0-1h.75A.75.75,0,0,1,8,8.75Zm6-.112v1.8a.625.625,0,0,1-1.25,0V5.625A.625.625,0,0,1,13.375,5h2.013a.625.625,0,0,1,0,1.25H14V7.388h1.239a.625.625,0,0,1,0,1.25ZM11,5.625v4.819a.625.625,0,1,1-1.25,0V5.625a.625.625,0,0,1,1.25,0Z"/></symbol>
<symbol id="drafts-line" viewBox="0 0 24 24"><path d="M18.987,1.975h-6.528c-.154,0-.31-.037-.447-.105L8.856,.291c-.414-.207-.878-.316-1.342-.316h-2.527C2.23-.025-.013,2.218-.013,4.975v12c0,1.779,.958,3.438,2.499,4.33,.479,.278,1.09,.113,1.366-.364,.277-.479,.113-1.09-.364-1.366-.926-.536-1.501-1.532-1.501-2.6V7.975H21.987v9c0,1.067-.575,2.063-1.501,2.6-.478,.276-.642,.888-.364,1.366,.185,.32,.521,.499,.866,.499,.17,0,.342-.043,.5-.135,1.541-.892,2.499-2.551,2.499-4.33V6.975c0-2.757-2.243-5-5-5ZM1.987,4.975c0-1.654,1.346-3,3-3h2.527c.154,0,.31,.036,.447,.105l3.156,1.579c.415,.206,.879,.315,1.341,.315h6.528c1.302,0,2.402,.839,2.816,2H1.987v-1Zm9.991,5c-3.859,0-7,3.141-7,7s3.141,7,7,7,7-3.141,7-7-3.141-7-7-7Zm0,12c-2.757,0-5-2.243-5-5s2.243-5,5-5,5,2.243,5,5-2.243,5-5,5Zm1.707-4.707c.391,.391,.391,1.023,0,1.414-.195,.195-.451,.293-.707,.293s-.512-.098-.707-.293l-1-1c-.188-.188-.293-.441-.293-.707v-2c0-.553,.447-1,1-1s1,.447,1,1v1.586l.707,.707Z"/></symbol>


<symbol id="reply-line" viewBox="0 0 24 24"><path d="M23,24a1,1,0,0,1-1-1,6.006,6.006,0,0,0-6-6H10.17v1.586A2,2,0,0,1,6.756,20L.877,14.121a3,3,0,0,1,0-4.242L6.756,4A2,2,0,0,1,10.17,5.414V7H15a9.01,9.01,0,0,1,9,9v7A1,1,0,0,1,23,24ZM8.17,5.414,2.291,11.293a1,1,0,0,0,0,1.414L8.17,18.586V16a1,1,0,0,1,1-1H16a7.984,7.984,0,0,1,6,2.714V16a7.008,7.008,0,0,0-7-7H9.17a1,1,0,0,1-1-1Z"/></symbol>
<symbol id="reply-fill" viewBox="0 0 24 24"><path d="M15,7H10.17V5.414A2,2,0,0,0,6.756,4L.876,9.879a3,3,0,0,0,0,4.242L6.756,20a2,2,0,0,0,3.414-1.414V17H16a6.006,6.006,0,0,1,6,6,1,1,0,0,0,2,0V16A9.01,9.01,0,0,0,15,7Z"/></symbol>

<symbol id="angle-left-line" viewBox="0 0 24 24"><path d="M17.17,24a1,1,0,0,1-.71-.29L8.29,15.54a5,5,0,0,1,0-7.08L16.46.29a1,1,0,1,1,1.42,1.42L9.71,9.88a3,3,0,0,0,0,4.24l8.17,8.17a1,1,0,0,1,0,1.42A1,1,0,0,1,17.17,24Z"/></symbol>
<symbol id="angle-right-line" viewBox="0 0 24 24"><path d="M7,24a1,1,0,0,1-.71-.29,1,1,0,0,1,0-1.42l8.17-8.17a3,3,0,0,0,0-4.24L6.29,1.71A1,1,0,0,1,7.71.29l8.17,8.17a5,5,0,0,1,0,7.08L7.71,23.71A1,1,0,0,1,7,24Z"/></symbol>


<!-- Settings -->
<symbol id="user-lock-line" viewBox="0 0 24 24"><path d="m22,14.537v-1.537c0-2.206-1.794-4-4-4s-4,1.794-4,4v1.537c-1.195.693-2,1.986-2,3.463v2c0,2.206,1.794,4,4,4h4c2.206,0,4-1.794,4-4v-2c0-1.477-.805-2.77-2-3.463Zm-6-1.537c0-1.103.897-2,2-2s2,.897,2,2v1h-4v-1Zm6,7c0,1.103-.897,2-2,2h-4c-1.103,0-2-.897-2-2v-2c0-1.103.897-2,2-2h4c1.103,0,2,.897,2,2v2Zm-2.5-1c0,.828-.672,1.5-1.5,1.5s-1.5-.672-1.5-1.5.672-1.5,1.5-1.5,1.5.672,1.5,1.5Zm-11.5-7c3.309,0,6-2.691,6-6S11.309,0,8,0,2,2.691,2,6s2.691,6,6,6Zm0-10c2.206,0,4,1.794,4,4s-1.794,4-4,4-4-1.794-4-4,1.794-4,4-4Zm1.99,13.211c-.078.547-.583.929-1.131.85-.284-.041-.574-.061-.859-.061-3.309,0-6,2.691-6,6v1c0,.552-.448,1-1,1s-1-.448-1-1v-1c0-4.411,3.589-8,8-8,.379,0,.763.027,1.141.081.547.078.927.584.85,1.131Z"/></symbol>
<symbol id="user-edit-line" viewBox="0 0 24 24"><path d="M9,12c3.309,0,6-2.691,6-6S12.309,0,9,0,3,2.691,3,6s2.691,6,6,6Zm0-10c2.206,0,4,1.794,4,4s-1.794,4-4,4-4-1.794-4-4,1.794-4,4-4Zm1.75,14.22c-.568-.146-1.157-.22-1.75-.22-3.86,0-7,3.14-7,7,0,.552-.448,1-1,1s-1-.448-1-1c0-4.962,4.038-9,9-9,.762,0,1.519,.095,2.25,.284,.535,.138,.856,.683,.719,1.218-.137,.535-.68,.856-1.218,.719Zm12.371-4.341c-1.134-1.134-3.11-1.134-4.243,0l-6.707,6.707c-.755,.755-1.172,1.76-1.172,2.829v1.586c0,.552,.448,1,1,1h1.586c1.069,0,2.073-.417,2.828-1.172l6.707-6.707c.567-.567,.879-1.32,.879-2.122s-.312-1.555-.878-2.121Zm-1.415,2.828l-6.708,6.707c-.377,.378-.879,.586-1.414,.586h-.586v-.586c0-.534,.208-1.036,.586-1.414l6.708-6.707c.377-.378,1.036-.378,1.414,0,.189,.188,.293,.439,.293,.707s-.104,.518-.293,.707Z"/></symbol>
<symbol id="password-line" viewBox="0 0 24 24"><path d="m15 17a1 1 0 0 1 -1 1h-4a1 1 0 0 1 0-2h4a1 1 0 0 1 1 1zm-.293-9.707a1 1 0 0 0 -1.414 0l-1.293 1.293-1.293-1.293a1 1 0 1 0 -1.414 1.414l1.293 1.293-1.293 1.293a1 1 0 1 0 1.414 1.414l1.293-1.293 1.293 1.293a1 1 0 0 0 1.414-1.414l-1.293-1.293 1.293-1.293a1 1 0 0 0 0-1.414zm7.293 8.707h-4a1 1 0 0 0 0 2h4a1 1 0 0 0 0-2zm-.586-6 1.293-1.293a1 1 0 1 0 -1.414-1.414l-1.293 1.293-1.293-1.293a1 1 0 1 0 -1.414 1.414l1.293 1.293-1.293 1.293a1 1 0 1 0 1.414 1.414l1.293-1.293 1.293 1.293a1 1 0 0 0 1.414-1.414zm-15.414 6h-4a1 1 0 0 0 0 2h4a1 1 0 0 0 0-2zm.707-8.707a1 1 0 0 0 -1.414 0l-1.293 1.293-1.293-1.293a1 1 0 1 0 -1.414 1.414l1.293 1.293-1.293 1.293a1 1 0 1 0 1.414 1.414l1.293-1.293 1.293 1.293a1 1 0 1 0 1.414-1.414l-1.293-1.293 1.293-1.293a1 1 0 0 0 0-1.414z"/></symbol>
<symbol id="alarm-warning-line" viewBox="0 0 24 24"><path d="m21,18.126v-5.126c0-4.963-4.037-9-9-9S3,8.037,3,13v5.126c-1.724.445-3,2.013-3,3.874,0,1.103.897,2,2,2h20c1.103,0,2-.897,2-2,0-1.861-1.276-3.429-3-3.874ZM12,6c3.859,0,7,3.141,7,7v5H5v-5c0-3.859,3.141-7,7-7ZM2,22c0-1.103.897-2,2-2h16c1.103,0,2,.897,2,2H2ZM20.797,6.211c-.393-.389-.396-1.021-.008-1.414l1.5-1.517c.388-.393,1.021-.396,1.414-.008.393.389.396,1.021.008,1.414l-1.5,1.517c-.195.198-.453.297-.711.297-.254,0-.508-.097-.703-.289Zm-4.185-4.171l.777-1.5c.254-.492.859-.682,1.348-.428.49.254.682.857.428,1.348l-.777,1.5c-.178.344-.527.54-.889.54-.155,0-.312-.036-.459-.112-.49-.254-.682-.857-.428-1.348ZM.289,4.687c-.389-.393-.385-1.025.008-1.414.392-.389,1.027-.385,1.414.008l1.5,1.517c.389.393.385,1.025-.008,1.414-.194.192-.449.289-.703.289-.258,0-.516-.099-.711-.297l-1.5-1.517ZM4.835,1.46c-.254-.49-.062-1.094.428-1.348.487-.254,1.093-.064,1.348.428l.777,1.5c.254.49.062,1.094-.428,1.348-.146.076-.304.112-.459.112-.361,0-.711-.196-.889-.54l-.777-1.5Zm3.165,11.54c0-2.206,1.794-4,4-4,.553,0,1,.447,1,1s-.447,1-1,1c-1.103,0-2,.897-2,2,0,.553-.447,1-1,1s-1-.447-1-1Z"/></symbol>
<symbol id="history-line" viewBox="0 0 24 24"><path d="M12,0A11.972,11.972,0,0,0,4,3.073V1A1,1,0,0,0,2,1V4A3,3,0,0,0,5,7H8A1,1,0,0,0,8,5H5a.854.854,0,0,1-.1-.021A9.987,9.987,0,1,1,2,12a1,1,0,0,0-2,0A12,12,0,1,0,12,0Z"/><path d="M12,6a1,1,0,0,0-1,1v5a1,1,0,0,0,.293.707l3,3a1,1,0,0,0,1.414-1.414L13,11.586V7A1,1,0,0,0,12,6Z"/></symbol>
<symbol id="gdpr-line" viewBox="0 0 24 24"><path d="m12,10c-1.93,0-3.5,1.57-3.5,3.5s1.57,3.5,3.5,3.5,3.5-1.57,3.5-3.5-1.57-3.5-3.5-3.5Zm0,5c-.827,0-1.5-.673-1.5-1.5s.673-1.5,1.5-1.5,1.5.673,1.5,1.5-.673,1.5-1.5,1.5Zm7.949-9.464l-3.484-3.486c-1.323-1.322-3.081-2.05-4.95-2.05h-4.515C4.243,0,2,2.243,2,5v14c0,2.757,2.243,5,5,5h10c2.757,0,5-2.243,5-5v-8.515c0-1.871-.729-3.628-2.051-4.95Zm-1.414,1.415c.318.317.587.67.805,1.05h-4.341c-.552,0-1-.449-1-1V2.659c.38.218.733.487,1.051.805l3.484,3.486Zm-9.363,15.05c.413-1.164,1.524-2,2.828-2s2.415.836,2.828,2h-5.656Zm10.828-3c0,1.654-1.346,3-3,3h-.101c-.465-2.279-2.485-4-4.899-4s-4.435,1.721-4.899,4h-.101c-1.654,0-3-1.346-3-3V5c0-1.654,1.346-3,3-3h4.515c.163,0,.325.008.485.023v4.977c0,1.654,1.346,3,3,3h4.977c.015.16.023.322.023.485v8.515Z"/></symbol>
<symbol id="delete-bin-line" viewBox="0 0 24 24"><path d="M21,4H17.9A5.009,5.009,0,0,0,13,0H11A5.009,5.009,0,0,0,6.1,4H3A1,1,0,0,0,3,6H4V19a5.006,5.006,0,0,0,5,5h6a5.006,5.006,0,0,0,5-5V6h1a1,1,0,0,0,0-2ZM11,2h2a3.006,3.006,0,0,1,2.829,2H8.171A3.006,3.006,0,0,1,11,2Zm7,17a3,3,0,0,1-3,3H9a3,3,0,0,1-3-3V6H18Z"/><path d="M10,18a1,1,0,0,0,1-1V11a1,1,0,0,0-2,0v6A1,1,0,0,0,10,18Z"/><path d="M14,18a1,1,0,0,0,1-1V11a1,1,0,0,0-2,0v6A1,1,0,0,0,14,18Z"/></symbol>

<!-- Help -->
<symbol id="kb-line" viewBox="0 0 24 24"><path d="m16 6a1 1 0 0 1 0 2h-8a1 1 0 0 1 0-2zm7.707 17.707a1 1 0 0 1 -1.414 0l-2.407-2.407a4.457 4.457 0 0 1 -2.386.7 4.5 4.5 0 1 1 4.5-4.5 4.457 4.457 0 0 1 -.7 2.386l2.407 2.407a1 1 0 0 1 0 1.414zm-6.207-3.707a2.5 2.5 0 1 0 -2.5-2.5 2.5 2.5 0 0 0 2.5 2.5zm-4.5 2h-6a3 3 0 0 1 -3-3v-14a3 3 0 0 1 3-3h12a1 1 0 0 1 1 1v8a1 1 0 0 0 2 0v-8a3 3 0 0 0 -3-3h-12a5.006 5.006 0 0 0 -5 5v14a5.006 5.006 0 0 0 5 5h6a1 1 0 0 0 0-2z"/></symbol>
<symbol id="question-line" viewBox="0 0 24 24"><path d="M12,16c.828,0,1.5,.672,1.5,1.5s-.672,1.5-1.5,1.5-1.5-.672-1.5-1.5,.672-1.5,1.5-1.5Zm1-2c0-.561,.408-1.225,.928-1.512,1.5-.827,2.307-2.523,2.009-4.222-.283-1.614-1.608-2.938-3.221-3.22-1.178-.205-2.379,.11-3.287,.873-.908,.763-1.429,1.879-1.429,3.064,0,.552,.448,1,1,1s1-.448,1-1c0-.592,.261-1.151,.715-1.533,.461-.388,1.049-.542,1.656-.435,.787,.138,1.458,.809,1.596,1.596,.153,.87-.241,1.704-1.004,2.125-1.156,.637-1.963,1.979-1.963,3.264,0,.553,.448,1,1,1s1-.447,1-1Zm11,5V5c0-2.757-2.243-5-5-5H5C2.243,0,0,2.243,0,5v14c0,2.757,2.243,5,5,5h14c2.757,0,5-2.243,5-5ZM19,2c1.654,0,3,1.346,3,3v14c0,1.654-1.346,3-3,3H5c-1.654,0-3-1.346-3-3V5c0-1.654,1.346-3,3-3h14Z"/></symbol>

<!-- Menu -->
<symbol id="apps-line" viewBox="0 0 24 24"><path d="M7,0H4A4,4,0,0,0,0,4V7a4,4,0,0,0,4,4H7a4,4,0,0,0,4-4V4A4,4,0,0,0,7,0ZM9,7A2,2,0,0,1,7,9H4A2,2,0,0,1,2,7V4A2,2,0,0,1,4,2H7A2,2,0,0,1,9,4Z"/><path d="M20,0H17a4,4,0,0,0-4,4V7a4,4,0,0,0,4,4h3a4,4,0,0,0,4-4V4A4,4,0,0,0,20,0Zm2,7a2,2,0,0,1-2,2H17a2,2,0,0,1-2-2V4a2,2,0,0,1,2-2h3a2,2,0,0,1,2,2Z"/><path d="M7,13H4a4,4,0,0,0-4,4v3a4,4,0,0,0,4,4H7a4,4,0,0,0,4-4V17A4,4,0,0,0,7,13Zm2,7a2,2,0,0,1-2,2H4a2,2,0,0,1-2-2V17a2,2,0,0,1,2-2H7a2,2,0,0,1,2,2Z"/><path d="M20,13H17a4,4,0,0,0-4,4v3a4,4,0,0,0,4,4h3a4,4,0,0,0,4-4V17A4,4,0,0,0,20,13Zm2,7a2,2,0,0,1-2,2H17a2,2,0,0,1-2-2V17a2,2,0,0,1,2-2h3a2,2,0,0,1,2,2Z"/></symbol>
<symbol id="feeds-line" viewBox="0 0 24 24"><path d="m19,0H5C2.243,0,0,2.243,0,5v14c0,2.757,2.243,5,5,5h14c2.757,0,5-2.243,5-5V5c0-2.757-2.243-5-5-5Zm3,19c0,1.654-1.346,3-3,3H5c-1.654,0-3-1.346-3-3V5c0-1.654,1.346-3,3-3h14c1.654,0,3,1.346,3,3v14Zm-9-1c0,.553-.448,1-1,1s-1-.447-1-1c0-2.757-2.243-5-5-5-.552,0-1-.447-1-1s.448-1,1-1c3.86,0,7,3.141,7,7Zm6,0c0,.553-.448,1-1,1s-1-.447-1-1c0-6.065-4.935-11-11-11-.552,0-1-.447-1-1s.448-1,1-1c7.168,0,13,5.832,13,13Zm-11-.5c0,.828-.672,1.5-1.5,1.5s-1.5-.672-1.5-1.5.672-1.5,1.5-1.5,1.5.672,1.5,1.5Z"/></symbol>
<symbol id="bookmarks-line" viewBox="0 0 24 24"><path d="M20.137,24a2.8,2.8,0,0,1-1.987-.835L12,17.051,5.85,23.169a2.8,2.8,0,0,1-3.095.609A2.8,2.8,0,0,1,1,21.154V5A5,5,0,0,1,6,0H18a5,5,0,0,1,5,5V21.154a2.8,2.8,0,0,1-1.751,2.624A2.867,2.867,0,0,1,20.137,24ZM6,2A3,3,0,0,0,3,5V21.154a.843.843,0,0,0,1.437.6h0L11.3,14.933a1,1,0,0,1,1.41,0l6.855,6.819a.843.843,0,0,0,1.437-.6V5a3,3,0,0,0-3-3Z"/></symbol>
<symbol id="settings-line" viewBox="0 0 24 24"><path d="M12,8a4,4,0,1,0,4,4A4,4,0,0,0,12,8Zm0,6a2,2,0,1,1,2-2A2,2,0,0,1,12,14Z"/><path d="M21.294,13.9l-.444-.256a9.1,9.1,0,0,0,0-3.29l.444-.256a3,3,0,1,0-3-5.2l-.445.257A8.977,8.977,0,0,0,15,3.513V3A3,3,0,0,0,9,3v.513A8.977,8.977,0,0,0,6.152,5.159L5.705,4.9a3,3,0,0,0-3,5.2l.444.256a9.1,9.1,0,0,0,0,3.29l-.444.256a3,3,0,1,0,3,5.2l.445-.257A8.977,8.977,0,0,0,9,20.487V21a3,3,0,0,0,6,0v-.513a8.977,8.977,0,0,0,2.848-1.646l.447.258a3,3,0,0,0,3-5.2Zm-2.548-3.776a7.048,7.048,0,0,1,0,3.75,1,1,0,0,0,.464,1.133l1.084.626a1,1,0,0,1-1,1.733l-1.086-.628a1,1,0,0,0-1.215.165,6.984,6.984,0,0,1-3.243,1.875,1,1,0,0,0-.751.969V21a1,1,0,0,1-2,0V19.748a1,1,0,0,0-.751-.969A6.984,6.984,0,0,1,7.006,16.9a1,1,0,0,0-1.215-.165l-1.084.627a1,1,0,1,1-1-1.732l1.084-.626a1,1,0,0,0,.464-1.133,7.048,7.048,0,0,1,0-3.75A1,1,0,0,0,4.79,8.992L3.706,8.366a1,1,0,0,1,1-1.733l1.086.628A1,1,0,0,0,7.006,7.1a6.984,6.984,0,0,1,3.243-1.875A1,1,0,0,0,11,4.252V3a1,1,0,0,1,2,0V4.252a1,1,0,0,0,.751.969A6.984,6.984,0,0,1,16.994,7.1a1,1,0,0,0,1.215.165l1.084-.627a1,1,0,1,1,1,1.732l-1.084.626A1,1,0,0,0,18.746,10.125Z"/></symbol>
<symbol id="help-line" viewBox="0 0 24 24"><path d="M12,16c.828,0,1.5,.672,1.5,1.5s-.672,1.5-1.5,1.5-1.5-.672-1.5-1.5,.672-1.5,1.5-1.5Zm1-2c0-.561,.408-1.225,.928-1.512,1.5-.827,2.307-2.523,2.009-4.222-.283-1.614-1.608-2.938-3.221-3.22-1.178-.205-2.379,.11-3.287,.873-.908,.763-1.429,1.879-1.429,3.064,0,.552,.448,1,1,1s1-.448,1-1c0-.592,.261-1.151,.715-1.533,.461-.388,1.049-.542,1.656-.435,.787,.138,1.458,.809,1.596,1.596,.153,.87-.241,1.704-1.004,2.125-1.156,.637-1.963,1.979-1.963,3.264,0,.553,.448,1,1,1s1-.447,1-1Zm11,5V5c0-2.757-2.243-5-5-5H5C2.243,0,0,2.243,0,5v14c0,2.757,2.243,5,5,5h14c2.757,0,5-2.243,5-5ZM19,2c1.654,0,3,1.346,3,3v14c0,1.654-1.346,3-3,3H5c-1.654,0-3-1.346-3-3V5c0-1.654,1.346-3,3-3h14Z"/></symbol>
<symbol id="about-line" viewBox="0 0 24 24"><path d="M13,20c-.55,0-1-.45-1-1v-6c0-.55-.45-1-1-1s-1-.45-1-1,.45-1,1-1c1.65,0,3,1.35,3,3v6c0,.55-.45,1-1,1Zm-1-15c-.83,0-1.5,.67-1.5,1.5s.67,1.5,1.5,1.5,1.5-.67,1.5-1.5-.67-1.5-1.5-1.5Zm12,14V5c0-2.76-2.24-5-5-5H5C2.24,0,0,2.24,0,5v14c0,2.76,2.24,5,5,5h14c2.76,0,5-2.24,5-5ZM19,2c1.65,0,3,1.35,3,3v14c0,1.65-1.35,3-3,3H5c-1.65,0-3-1.35-3-3V5c0-1.65,1.35-3,3-3h14Z"/></symbol>
<symbol id="charity-line" viewBox="0 0 24 24"><path d="M8.965,24H4a4,4,0,0,1-4-4V15a4,4,0,0,1,4-4h8.857a3.144,3.144,0,0,1,2.69,1.519l3.217-3.535a3.01,3.01,0,0,1,4.254-.2,3.022,3.022,0,0,1,.217,4.23l-6.8,7.637A10.012,10.012,0,0,1,8.965,24ZM4,13a2,2,0,0,0-2,2v5a2,2,0,0,0,2,2H8.965a8.005,8.005,0,0,0,5.972-2.678l6.805-7.638a1.015,1.015,0,0,0-.072-1.421A1.029,1.029,0,0,0,20.942,10a1,1,0,0,0-.7.329L15.816,15.2A3.158,3.158,0,0,1,13.3,17.252l-5.161.738a1,1,0,0,1-.284-1.98l5.162-.737A1.142,1.142,0,0,0,12.857,13Zm7-3.926a1.986,1.986,0,0,1-1.247-.436C8.041,7.264,6,5.2,6,3.2A3.109,3.109,0,0,1,9,0a2.884,2.884,0,0,1,2,.817A2.884,2.884,0,0,1,13,0a3.109,3.109,0,0,1,3,3.2c0,2-2.041,4.064-3.754,5.439A1.986,1.986,0,0,1,11,9.074ZM9,2A1.115,1.115,0,0,0,8,3.2c0,.9,1.151,2.39,3.006,3.879C12.849,5.59,14,4.1,14,3.2A1.115,1.115,0,0,0,13,2a1.115,1.115,0,0,0-1,1.2,1,1,0,0,1-2,0A1.115,1.115,0,0,0,9,2Z"/></symbol>
<symbol id="logout-line" viewBox="0 0 24 24"><path d="M11.476,15a1,1,0,0,0-1,1v3a3,3,0,0,1-3,3H5a3,3,0,0,1-3-3V5A3,3,0,0,1,5,2H7.476a3,3,0,0,1,3,3V8a1,1,0,0,0,2,0V5a5.006,5.006,0,0,0-5-5H5A5.006,5.006,0,0,0,0,5V19a5.006,5.006,0,0,0,5,5H7.476a5.006,5.006,0,0,0,5-5V16A1,1,0,0,0,11.476,15Z"/><path d="M22.867,9.879,18.281,5.293a1,1,0,1,0-1.414,1.414l4.262,4.263L6,11a1,1,0,0,0,0,2H6l15.188-.031-4.323,4.324a1,1,0,1,0,1.414,1.414l4.586-4.586A3,3,0,0,0,22.867,9.879Z"/></symbol>
<symbol id="plus-line" viewBox="0 0 24 24"><path d="M9.02,17.35c-.19,0-.39-.06-.55-.18-.31-.23-.44-.64-.32-1.01l.86-2.76-2.18-1.77c-.29-.25-.4-.65-.27-1.01,.13-.36,.48-.6,.86-.6h2.75l.97-2.61c.13-.36,.48-.6,.86-.6s.73,.24,.86,.6l.97,2.61h2.75c.38,0,.73,.24,.86,.6s.02,.77-.27,1.02l-2.17,1.77,.9,2.73c.12,.37,0,.78-.31,1.01-.31,.24-.73,.25-1.06,.04l-2.52-1.64-2.48,1.66c-.15,.1-.33,.15-.51,.15Zm9.98,6.65H5c-2.76,0-5-2.24-5-5V5C0,2.24,2.24,0,5,0h14c2.76,0,5,2.24,5,5v14c0,2.76-2.24,5-5,5ZM5,2c-1.65,0-3,1.35-3,3v14c0,1.65,1.35,3,3,3h14c1.65,0,3-1.35,3-3V5c0-1.65-1.35-3-3-3H5Z"/></symbol>

<!-- Erors -->
<symbol id="cloud-off-line" viewBox="0 0 24 24"><path d="M3.51472 2.10051L22.6066 21.1924L21.1924 22.6066L19.1782 20.5924C18.503 20.8556 17.7684 21 17 21H7C3.68629 21 1 18.3137 1 15C1 12.3846 2.67346 10.16 5.00804 9.33857C5.0027 9.22639 5 9.11351 5 9C5 8.22228 5.12683 7.47418 5.36094 6.77527L2.10051 3.51472L3.51472 2.10051ZM7 9C7 9.08147 7.00193 9.16263 7.00578 9.24344L7.07662 10.7309L5.67183 11.2252C4.0844 11.7837 3 13.2889 3 15C3 17.2091 4.79086 19 7 19H17C17.1858 19 17.3687 18.9873 17.5478 18.9628L7.03043 8.44519C7.01032 8.62736 7 8.81247 7 9ZM12 2C15.866 2 19 5.13401 19 9C19 9.11351 18.9973 9.22639 18.992 9.33857C21.3265 10.16 23 12.3846 23 15C23 16.0883 22.7103 17.1089 22.2037 17.9889L20.7111 16.4955C20.8974 16.0335 21 15.5287 21 15C21 12.79 19.21 11 17 11C16.4711 11 15.9661 11.1027 15.5039 11.2892L14.0111 9.7964C14.8912 9.28978 15.9118 9 17 9C17 6.23858 14.7614 4 12 4C10.9295 4 9.93766 4.33639 9.12428 4.90922L7.69418 3.48056C8.88169 2.55284 10.3763 2 12 2Z"></path></symbol>
<symbol id="spy-line" viewBox="0 0 24 24"><path d="M17 13C19.2091 13 21 14.7909 21 17C21 19.2091 19.2091 21 17 21C14.7909 21 13 19.2091 13 17H11C11 19.2091 9.20914 21 7 21C4.79086 21 3 19.2091 3 17C3 14.7909 4.79086 13 7 13C8.48052 13 9.77317 13.8043 10.4648 14.9999H13.5352C14.2268 13.8043 15.5195 13 17 13ZM7 15C5.89543 15 5 15.8954 5 17C5 18.1046 5.89543 19 7 19C8.10457 19 9 18.1046 9 17C9 15.8954 8.10457 15 7 15ZM17 15C15.8954 15 15 15.8954 15 17C15 18.1046 15.8954 19 17 19C18.1046 19 19 18.1046 19 17C19 15.8954 18.1046 15 17 15ZM16 3C18.2091 3 20 4.79086 20 7V10H22V12H2V10H4V7C4 4.79086 5.79086 3 8 3H16ZM16 5H8C6.94564 5 6 5.95 6 7V10H18V7C18 5.94564 17.05 5 16 5Z"></path></symbol>
<symbol id="ghost-line" viewBox="0 0 24 24"><path d="M12 2C15.5 2 18 5 19 8C22 9 23 11.73 23 14L20.2253 14.7928C19.796 14.9154 19.5 15.3078 19.5 15.7543V17.25C19.5 18.2165 18.7165 19 17.75 19H17.1536C16.4825 19 15.8562 19.3366 15.4858 19.8962C14.5576 21.2987 13.3957 22 12 22C10.6043 22 9.44238 21.2987 8.5142 19.8962C8.14383 19.3366 7.51746 19 6.84636 19H6.25C5.2835 19 4.5 18.2165 4.5 17.25V15.7543C4.5 15.3078 4.20402 14.9154 3.77472 14.7928L1 14C1 11.7337 2 9 5 8C6 5 8.5 2 12 2ZM12 4C9.8906 4 7.93534 5.78788 6.98864 8.37148L6.89737 8.63246L6.58114 9.58114L5.63246 9.89737C4.37721 10.3158 3.56485 11.238 3.20834 12.4564L3.185 12.543L4.32416 12.8697C5.55353 13.221 6.41845 14.3095 6.49454 15.5727L6.5 15.7543V17H6.84636C8.1096 17 9.29359 17.5963 10.0461 18.5996L10.182 18.7925C10.7584 19.6634 11.3162 20 12 20C12.6382 20 13.1667 19.7068 13.7029 18.9596L13.818 18.7925C14.5151 17.739 15.6658 17.0807 16.9178 17.0069L17.1536 17H17.5V15.7543C17.5 14.4757 18.309 13.3451 19.5027 12.9249L19.6758 12.8697L20.815 12.543L20.7918 12.4555C20.4554 11.3047 19.7124 10.4193 18.5728 9.97176L18.3675 9.89737L17.4189 9.58114L17.1026 8.63246C16.1948 5.90906 14.1797 4 12 4ZM12 12C12.8284 12 13.5 13.1193 13.5 14.5C13.5 15.8807 12.8284 17 12 17C11.1716 17 10.5 15.8807 10.5 14.5C10.5 13.1193 11.1716 12 12 12ZM9.5 8C10.3284 8 11 8.67157 11 9.5C11 10.3284 10.3284 11 9.5 11C8.67157 11 8 10.3284 8 9.5C8 8.67157 8.67157 8 9.5 8ZM14.5 8C15.3284 8 16 8.67157 16 9.5C16 10.3284 15.3284 11 14.5 11C13.6716 11 13 10.3284 13 9.5C13 8.67157 13.6716 8 14.5 8Z"></path></symbol>
<symbol id="cancel-circle-line" viewBox="0 0 24 24"><path d="M12,0A12,12,0,1,0,24,12,12.013,12.013,0,0,0,12,0Zm0,2a9.949,9.949,0,0,1,6.324,2.262L4.262,18.324A9.992,9.992,0,0,1,12,2Zm0,20a9.949,9.949,0,0,1-6.324-2.262L19.738,5.676A9.992,9.992,0,0,1,12,22Z"/></symbol>
<symbol id="sad-face-line" viewBox="0 0 24 24"><path d="M12,16c1.965,0,3.531,1.149,3.597,1.198,.443,.329,.535,.956,.205,1.398-.196,.264-.498,.403-.803,.403-.208,0-.417-.064-.596-.198-.007-.005-1.114-.802-2.403-.802s-2.396,.797-2.407,.805c-.444,.323-1.07,.23-1.396-.213-.326-.443-.235-1.065,.206-1.394,.066-.049,1.632-1.198,3.597-1.198ZM12,0C7.469,0,3.373,2.508,1.309,6.545c-.251,.491-.056,1.094,.436,1.346,.492,.25,1.094,.056,1.346-.436,1.72-3.365,5.134-5.455,8.91-5.455,5.514,0,10,4.486,10,10s-4.486,10-10,10c-2.563,0-5.001-.969-6.863-2.728-.401-.377-1.034-.36-1.414,.041-.379,.401-.361,1.034,.041,1.414,2.235,2.11,5.16,3.272,8.236,3.272,6.617,0,12-5.383,12-12S18.617,0,12,0Zm5.726,8.962c.092,.025,.184,.038,.275,.038,.435,0,.835-.286,.961-.726,.152-.531-.156-1.084-.687-1.236-.965-.275-1.977-.941-2.46-1.619-.32-.448-.945-.555-1.395-.232-.449,.32-.554,.945-.233,1.395,.746,1.045,2.135,1.979,3.54,2.381Zm-9.54-3.543c-.484,.678-1.496,1.344-2.46,1.619-.531,.152-.839,.705-.687,1.236,.125,.439,.526,.726,.961,.726,.091,0,.183-.013,.275-.038,1.404-.401,2.793-1.336,3.54-2.381,.321-.449,.216-1.074-.233-1.395-.45-.321-1.074-.217-1.395,.232Zm.314,5.581c-.828,0-1.5,.672-1.5,1.5s.672,1.5,1.5,1.5,1.5-.672,1.5-1.5-.672-1.5-1.5-1.5Zm7,3c.828,0,1.5-.672,1.5-1.5s-.672-1.5-1.5-1.5-1.5,.672-1.5,1.5,.672,1.5,1.5,1.5Zm-10.5,.5c0-1.403-1.184-3.372-1.922-4.235-.303-.355-.849-.353-1.151,.004-.738,.874-1.927,2.861-1.927,4.231,0,1.381,1.119,2.5,2.5,2.5s2.5-1.119,2.5-2.5Z"/></symbol>
<symbol id="timeline-line" viewBox="0 0 24 24"><path d="M21,15H10.26c-.8,0-1.55-.31-2.12-.88l-1.42-1.41c-.19-.19-.29-.44-.29-.71s.11-.52,.29-.71l1.42-1.41c.57-.57,1.32-.88,2.12-.88h10.74c1.65,0,3,1.35,3,3s-1.35,3-3,3Zm-12.15-3l.71,.71c.19,.19,.44,.29,.71,.29h10.74c.55,0,1-.45,1-1s-.45-1-1-1H10.26c-.26,0-.52,.11-.71,.29h0l-.71,.71Zm9.15-6h-7.74c-.8,0-1.55-.31-2.12-.88l-1.42-1.41c-.19-.19-.29-.44-.29-.71s.11-.52,.29-.71l1.42-1.41c.57-.57,1.32-.88,2.12-.88h7.74c1.65,0,3,1.35,3,3s-1.35,3-3,3ZM8.85,3l.71,.71c.19,.19,.44,.29,.71,.29h7.74c.55,0,1-.45,1-1s-.45-1-1-1h-7.74c-.26,0-.52,.11-.71,.29h0l-.71,.71Zm7.15,21h-5.74c-.8,0-1.55-.31-2.12-.88l-1.42-1.41c-.19-.19-.29-.44-.29-.71s.11-.52,.29-.71l1.42-1.41c.57-.57,1.32-.88,2.12-.88h5.74c1.65,0,3,1.35,3,3s-1.35,3-3,3Zm-7.15-3l.71,.71c.19,.19,.44,.29,.71,.29h5.74c.55,0,1-.45,1-1s-.45-1-1-1h-5.74c-.26,0-.52,.11-.71,.29h0l-.71,.71Zm-6.85-2c-1.1,0-2,.9-2,2s.9,2,2,2,2-.9,2-2-.9-2-2-2Zm0-9c-1.1,0-2,.9-2,2s.9,2,2,2,2-.9,2-2-.9-2-2-2ZM2,1C.9,1,0,1.9,0,3s.9,2,2,2,2-.9,2-2S3.1,1,2,1Z"/></symbol>

<!-- Badges-->
<symbol id="badge-first-line" viewBox="0 0 24 24"><path d="m23.273,17.232l-3.177-3.062c-.01-.01-.024-.013-.034-.022-.015-.128-.033-.255-.062-.382-.064-.284.072-.591.341-.765.499-.322.903-.759,1.202-1.297.285-.516.435-1.106.432-1.7.003-.604-.146-1.194-.432-1.71-.299-.538-.703-.975-1.202-1.298-.269-.173-.405-.479-.34-.765.134-.591.114-1.197-.06-1.804-.329-1.147-1.247-2.065-2.396-2.396-.604-.172-1.211-.192-1.803-.058-.281.058-.591-.072-.765-.341-.321-.499-.758-.902-1.297-1.202-1.045-.579-2.344-.579-3.387,0-.538.299-.975.702-1.297,1.201-.172.268-.475.403-.765.34-.591-.133-1.196-.114-1.803.06-1.148.329-2.066,1.247-2.396,2.396-.173.605-.192,1.212-.058,1.804.064.284-.072.591-.34.764-.499.321-.904.758-1.203,1.298-.285.516-.435,1.106-.432,1.7-.003.604.146,1.194.432,1.71.299.54.704.977,1.202,1.298.269.173.405.479.34.765-.03.132-.049.264-.064.397-.003.002-.006.003-.009.005l-3.177,3.062c-.671.647-.899,1.599-.595,2.48s1.069,1.489,1.998,1.586l.744.076.08.578c.124.893.73,1.627,1.583,1.918.253.087.514.129.771.129.607,0,1.199-.234,1.649-.675l3.721-3.606c.42.17.86.282,1.309.282.455,0,.901-.114,1.326-.289l3.725,3.61c.452.442,1.045.678,1.653.678.258,0,.518-.042.771-.129.853-.291,1.459-1.025,1.583-1.919l.08-.577.744-.076c.929-.097,1.693-.704,1.998-1.586s.076-1.833-.595-2.48Zm-17.711,4.66c-.143.14-.3.112-.38.086-.08-.027-.221-.104-.248-.3l-.188-1.354c-.062-.457-.43-.811-.888-.858l-1.524-.157c-.205-.021-.284-.164-.312-.248-.029-.084-.056-.246.093-.389l2.315-2.232c.453.728,1.162,1.286,2.001,1.527.603.171,1.21.191,1.803.058.281-.06.591.072.765.341.026.04.064.07.091.109l-3.528,3.419Zm5.703-4.074c-.248-.138-.445-.318-.586-.537-.518-.802-1.397-1.271-2.307-1.271-.193,0-.389.021-.581.064-.26.061-.532.048-.811-.03-.483-.139-.886-.541-1.023-1.022-.08-.279-.091-.553-.032-.812.251-1.101-.234-2.262-1.207-2.889-.218-.141-.398-.337-.535-.585-.12-.217-.183-.47-.182-.741,0-.262.062-.515.182-.731.137-.248.317-.444.536-.585.972-.627,1.457-1.788,1.207-2.888-.06-.26-.049-.533.03-.812.139-.482.541-.885,1.023-1.022.279-.08.552-.089.811-.032,1.1.257,2.261-.232,2.888-1.206.142-.219.339-.399.586-.536.441-.244,1.008-.243,1.447,0,.248.138.445.318.586.537.627.973,1.791,1.458,2.888,1.207.261-.06.532-.047.811.03.483.139.886.541,1.023,1.022.08.279.091.553.032.812-.251,1.101.234,2.262,1.206,2.888.219.142.399.339.536.586.12.217.183.47.182.741,0,.262-.062.515-.182.731-.137.247-.317.444-.536.585-.972.627-1.457,1.788-1.207,2.888.06.26.049.533-.03.812-.139.482-.541.885-1.023,1.022-.278.08-.551.09-.811.032-1.096-.254-2.261.233-2.888,1.206-.142.219-.339.399-.586.536-.441.244-1.008.243-1.447,0Zm10.712,1.242c-.028.084-.107.228-.312.248l-1.524.157c-.458.048-.825.401-.888.858l-.188,1.354c-.027.197-.168.273-.248.301-.082.027-.238.053-.383-.089l-3.537-3.427c.024-.035.058-.061.081-.097.172-.269.476-.403.765-.34.59.132,1.195.113,1.803-.06.843-.242,1.556-.804,2.01-1.538l2.328,2.245c.148.143.122.305.093.389Zm-8.978-5.061c0,.553-.447,1-1,1s-1-.447-1-1v-6.213l-.293.293c-.391.391-1.023.391-1.414,0s-.391-1.023,0-1.414l1.242-1.242c.415-.414,1.034-.538,1.573-.312.542.225.892.748.892,1.334v7.555Z"/></symbol>
<symbol id="badge-time-quarter-line" viewBox="0 0 24 24"><path d="m24 12a1 1 0 0 1 -2 0 10.011 10.011 0 0 0 -10-10 1 1 0 0 1 0-2 12.013 12.013 0 0 1 12 12zm-8 1a1 1 0 0 0 0-2h-2.277a2 2 0 0 0 -.723-.723v-3.277a1 1 0 0 0 -2 0v3.277a1.994 1.994 0 1 0 2.723 2.723zm-14.173-6.216a1 1 0 1 0 1 1 1 1 0 0 0 -1-1zm.173 5.216a1 1 0 1 0 -1 1 1 1 0 0 0 1-1zm10 10a1 1 0 1 0 1 1 1 1 0 0 0 -1-1zm-7.779-18.793a1 1 0 1 0 1 1 1 1 0 0 0 -1-1zm3.558-2.366a1 1 0 1 0 1 1 1 1 0 0 0 -1-1zm-5.952 14.375a1 1 0 1 0 1 1 1 1 0 0 0 -1-1zm2.394 3.577a1 1 0 1 0 1 1 1 1 0 0 0 -1-1zm3.558 2.366a1 1 0 1 0 1 1 1 1 0 0 0 -1-1zm14.394-5.943a1 1 0 1 0 1 1 1 1 0 0 0 -1-1zm-2.394 3.577a1 1 0 1 0 1 1 1 1 0 0 0 -1-1zm-3.558 2.366a1 1 0 1 0 1 1 1 1 0 0 0 -1-1z"/></symbol>
<symbol id="badge-hundred-points-line" viewBox="0 0 24 24"><path d="m1.293,7.707c-.391-.391-.391-1.023,0-1.414l2-2c.286-.287.716-.371,1.09-.217.374.155.617.52.617.924v9c0,.552-.447,1-1,1s-1-.448-1-1v-6.586l-.293.293c-.391.391-1.023.391-1.414,0Zm22.683,6.071c-.123-.539-.662-.88-1.197-.753L.778,18.025c-.538.123-.876.658-.754,1.197.105.464.519.778.975.778.073,0,.148-.008.223-.025l22-5c.538-.123.876-.658.754-1.197Zm-1.186,5.244l-14,3c-.54.116-.884.647-.768,1.188.101.469.515.791.977.791.069,0,.14-.007.211-.022l14-3c.54-.116.884-.647.768-1.188-.116-.54-.643-.885-1.188-.769Zm-6.79-11.522V3.5c0-1.93,1.57-3.5,3.5-3.5s3.5,1.57,3.5,3.5v4c0,1.93-1.57,3.5-3.5,3.5s-3.5-1.57-3.5-3.5Zm2,0c0,.827.673,1.5,1.5,1.5s1.5-.673,1.5-1.5V3.5c0-.827-.673-1.5-1.5-1.5s-1.5.673-1.5,1.5v4Zm-11,2v-4c0-1.93,1.57-3.5,3.5-3.5s3.5,1.57,3.5,3.5v4c0,1.93-1.57,3.5-3.5,3.5s-3.5-1.57-3.5-3.5Zm2,0c0,.827.673,1.5,1.5,1.5s1.5-.673,1.5-1.5v-4c0-.827-.673-1.5-1.5-1.5s-1.5.673-1.5,1.5v4Z"/></symbol>
<symbol id="badge-dvacher" viewBox="0 0 24 24"><path d="M11.24,24a2.262,2.262,0,0,1-.948-.212,2.18,2.18,0,0,1-1.2-2.622L10.653,16H6.975A3,3,0,0,1,4.1,12.131l3.024-10A2.983,2.983,0,0,1,10,0h3.693a2.6,2.6,0,0,1,2.433,3.511L14.443,8H17a3,3,0,0,1,2.483,4.684l-6.4,10.3A2.2,2.2,0,0,1,11.24,24ZM10,2a1,1,0,0,0-.958.71l-3.024,10A1,1,0,0,0,6.975,14H12a1,1,0,0,1,.957,1.29L11.01,21.732a.183.183,0,0,0,.121.241A.188.188,0,0,0,11.4,21.9l6.4-10.3a1,1,0,0,0,.078-1.063A.979.979,0,0,0,17,10H13a1,1,0,0,1-.937-1.351l2.19-5.84A.6.6,0,0,0,13.693,2Z"/></symbol>
<symbol id="badge-face-sad-sweat" viewBox="0 0 24 24"><path d="M12,16c1.965,0,3.531,1.149,3.597,1.198,.443,.329,.535,.956,.205,1.398-.196,.264-.498,.403-.803,.403-.208,0-.417-.064-.596-.198-.007-.005-1.114-.802-2.403-.802s-2.396,.797-2.407,.805c-.444,.323-1.07,.23-1.396-.213-.326-.443-.235-1.065,.206-1.394,.066-.049,1.632-1.198,3.597-1.198ZM12,0C7.469,0,3.373,2.508,1.309,6.545c-.251,.491-.056,1.094,.436,1.346,.492,.25,1.094,.056,1.346-.436,1.72-3.365,5.134-5.455,8.91-5.455,5.514,0,10,4.486,10,10s-4.486,10-10,10c-2.563,0-5.001-.969-6.863-2.728-.401-.377-1.034-.36-1.414,.041-.379,.401-.361,1.034,.041,1.414,2.235,2.11,5.16,3.272,8.236,3.272,6.617,0,12-5.383,12-12S18.617,0,12,0Zm5.726,8.962c.092,.025,.184,.038,.275,.038,.435,0,.835-.286,.961-.726,.152-.531-.156-1.084-.687-1.236-.965-.275-1.977-.941-2.46-1.619-.32-.448-.945-.555-1.395-.232-.449,.32-.554,.945-.233,1.395,.746,1.045,2.135,1.979,3.54,2.381Zm-9.54-3.543c-.484,.678-1.496,1.344-2.46,1.619-.531,.152-.839,.705-.687,1.236,.125,.439,.526,.726,.961,.726,.091,0,.183-.013,.275-.038,1.404-.401,2.793-1.336,3.54-2.381,.321-.449,.216-1.074-.233-1.395-.45-.321-1.074-.217-1.395,.232Zm.314,5.581c-.828,0-1.5,.672-1.5,1.5s.672,1.5,1.5,1.5,1.5-.672,1.5-1.5-.672-1.5-1.5-1.5Zm7,3c.828,0,1.5-.672,1.5-1.5s-.672-1.5-1.5-1.5-1.5,.672-1.5,1.5,.672,1.5,1.5,1.5Zm-10.5,.5c0-1.403-1.184-3.372-1.922-4.235-.303-.355-.849-.353-1.151,.004-.738,.874-1.927,2.861-1.927,4.231,0,1.381,1.119,2.5,2.5,2.5s2.5-1.119,2.5-2.5Z"/></symbol>
<symbol id="badge-star-of-david" viewBox="0 0 24 24"><path d="m20.35,12l2.022-3.466c.429-.736.433-1.616.008-2.354-.424-.739-1.186-1.18-2.038-1.18h-4.076l-2.237-3.834c-.426-.73-1.185-1.166-2.03-1.166s-1.604.436-2.03,1.166l-2.236,3.834H3.659c-.852,0-1.613.441-2.038,1.18-.424.738-.421,1.618.008,2.354l2.022,3.466-2.022,3.466c-.429.736-.432,1.616-.008,2.354.424.739,1.186,1.18,2.038,1.18h4.075l2.236,3.834c.426.73,1.185,1.166,2.03,1.166s1.604-.436,2.03-1.166l2.237-3.834h4.076c.852,0,1.614-.441,2.038-1.18.424-.739.421-1.619-.008-2.354l-2.022-3.466Zm-.007-5c.176,0,.266.11.303.176.038.065.087.198-.001.35l-1.452,2.49-1.759-3.015h2.909Zm-2.308,5l-2.917,5h-6.235l-2.917-5,2.917-5h6.235l2.917,5ZM11.698,2.174c.088-.151.228-.174.302-.174.075,0,.214.022.302.173l1.649,2.827h-3.902l1.648-2.826ZM3.356,7.526c-.089-.152-.039-.285,0-.35.038-.066.127-.176.303-.176h2.909l-1.759,3.015-1.452-2.489Zm.302,9.474c-.176,0-.266-.11-.303-.176-.038-.065-.088-.198,0-.35l1.452-2.489,1.759,3.015h-2.909Zm8.644,4.827c-.088.151-.227.173-.302.173-.075,0-.214-.022-.302-.174l-1.648-2.826h3.902l-1.649,2.827Zm8.344-5.002c-.038.066-.127.176-.303.176h-2.909l1.759-3.015,1.452,2.49c.089.152.039.284.001.35Z"/></symbol>
<symbol id="badge-celeba" viewBox="0 0 24 24"><path d="m9.5,2.5c0-1.381,1.119-2.5,2.5-2.5s2.5,1.119,2.5,2.5-1.119,2.5-2.5,2.5-2.5-1.119-2.5-2.5Zm11.5.5c-1.654,0-3,1.346-3,3v5.184c-.266-.094-.542-.164-.832-.18-.793-.042-1.567.226-2.173.769l-3.009,2.769c-.083-.084-.16-.172-.247-.253l-2.744-2.525c-.597-.534-1.374-.801-2.163-.76-.29.016-.566.086-.832.18v-5.184c0-1.654-1.346-3-3-3S0,4.346,0,6v10.101c0,2.137.832,4.146,2.343,5.657l1.95,1.95c.195.195.451.293.707.293s.512-.098.707-.293c.391-.391.391-1.024,0-1.414l-1.95-1.95c-1.133-1.133-1.757-2.64-1.757-4.243V6c0-.551.448-1,1-1s1,.449,1,1c0,0-.005,8.076,0,8.116.03.655.285,1.309.746,1.857l2.616,2.721c.382.398,1.015.411,1.414.027.397-.383.41-1.016.027-1.414l-2.571-2.67c-.316-.377-.307-.938.022-1.305.177-.198.421-.315.687-.33.263-.018.521.075.71.244l2.733,2.516c1.026.944,1.615,2.286,1.615,3.68v3.559c0,.552.447,1,1,1s1-.448,1-1v-3.559c0-1.152-.294-2.275-.824-3.276l3.163-2.911c.198-.178.455-.271.72-.253.266.015.51.132.687.33.16.178.441.88.067,1.254l-2.533,2.634c-.383.398-.37,1.031.027,1.414.194.187.443.279.693.279.263,0,.524-.103.721-.307l2.578-2.685c.45-.536.686-1.195.701-1.857.002-.023,0-8.065,0-8.065,0-.551.448-1,1-1s1,.449,1,1v10.101c0,1.603-.624,3.109-1.757,4.243l-1.95,1.95c-.391.39-.391,1.023,0,1.414.195.195.451.293.707.293s.512-.098.707-.293l1.95-1.95c1.511-1.511,2.343-3.52,2.343-5.657V6c0-1.654-1.346-3-3-3Zm-10.671,7.274l.864.795c.456.42,1.158.42,1.614,0l.834-.767c.669-.599,1.483-.987,2.338-1.17.005-.008.008-.012.013-.02-.413-1.782-2.043-3.112-3.991-3.112s-3.577,1.329-3.991,3.11c.005.008.007.012.012.019.831.173,1.631.539,2.308,1.144Z"/></symbol>
<symbol id="badge-ent" viewBox="0 0 24 24"><path d="M18.483,5.157h0c-.315-.067-.591-.371-.703-.772-.72-2.582-3.097-4.385-5.78-4.385S6.94,1.803,6.22,4.385c-.112,.401-.388,.705-.703,.772C2.221,5.869-.098,8.837,.003,12.215c.112,3.741,3.364,6.785,7.248,6.785h3.749v4c0,.553,.448,1,1,1s1-.447,1-1v-4h2.784c4.641,0,8.095-2.854,8.213-6.785,.102-3.378-2.217-6.346-5.514-7.058Zm3.515,6.997c-.086,2.854-2.641,4.846-6.214,4.846h-2.784v-1.586l3.707-3.707c.391-.391,.391-1.023,0-1.414s-1.023-.391-1.414,0l-2.293,2.293v-3.586c0-.553-.448-1-1-1s-1,.447-1,1v3.586l-2.293-2.293c-.391-.391-1.023-.391-1.414,0s-.391,1.023,0,1.414l3.707,3.707v1.586h-3.749c-2.814,0-5.169-2.174-5.249-4.846-.072-2.413,1.583-4.534,3.936-5.042,1.048-.226,1.895-1.064,2.208-2.19,.48-1.721,2.064-2.922,3.853-2.922s3.373,1.201,3.853,2.922c.314,1.126,1.16,1.965,2.208,2.19,2.354,.508,4.009,2.629,3.937,5.042Z"/></symbol>
<symbol id="badge-cross-religion" viewBox="0 0 24 24"><path d="M12,24c-2.206,0-4-1.794-4-4v-6h-2c-2.206,0-4-1.794-4-4s1.794-4,4-4h2v-2c0-2.206,1.794-4,4-4s4,1.794,4,4v2h2c2.206,0,4,1.794,4,4s-1.794,4-4,4h-2v6c0,2.206-1.794,4-4,4ZM6,8c-1.103,0-2,.897-2,2s.897,2,2,2h3c.552,0,1,.447,1,1v7c0,1.103,.897,2,2,2s2-.897,2-2v-7c0-.553,.448-1,1-1h3c1.103,0,2-.897,2-2s-.897-2-2-2h-3c-.552,0-1-.447-1-1v-3c0-1.103-.897-2-2-2s-2,.897-2,2v3c0,.553-.448,1-1,1h-3Z"/></symbol>
<symbol id="badge-hands" viewBox="0 0 24 24"><path d="m24,6v10.101c0,2.137-.832,4.146-2.343,5.657l-1.95,1.95c-.195.195-.451.293-.707.293s-.512-.098-.707-.293c-.391-.391-.391-1.023,0-1.414l1.95-1.95c1.133-1.133,1.757-2.64,1.757-4.243V6c0-.551-.449-1-1-1s-1,.449-1,1c0,0-.012,8.043-.013,8.067-.015.662-.239,1.32-.688,1.856l-2.578,2.684c-.196.205-.458.307-.721.307-.25,0-.499-.093-.693-.279-.398-.383-.411-1.016-.028-1.414l2.533-2.634c.13-.157.191-.368.188-.585,0,0,0-.001,0-.002v-.044c-.013-.221-.095-.446-.254-.624-.367-.409-.998-.444-1.406-.077l-3.163,2.911c.53,1.001.824,2.124.824,3.276v3.559c0,.552-.448,1-1,1s-1-.448-1-1v-3.559c0-1.395-.588-2.735-1.615-3.68l-2.734-2.516c-.398-.357-1.03-.324-1.397.086-.328.367-.337.928-.021,1.305l2.57,2.671c.383.398.371,1.031-.028,1.414-.396.383-1.031.372-1.414-.028l-2.616-2.721c-.46-.547-.693-1.2-.723-1.854-.005-.04-.024-8.118-.024-8.118,0-.551-.449-1-1-1s-1,.449-1,1v10.101c0,1.603.624,3.109,1.757,4.243l1.95,1.95c.391.391.391,1.023,0,1.414-.195.195-.451.293-.707.293s-.512-.098-.707-.293l-1.95-1.95c-1.511-1.511-2.343-3.52-2.343-5.657V6c0-1.654,1.346-3,3-3s3,1.346,3,3v5.186c.999-.352,2.152-.176,2.996.579l2.744,2.525c.087.08.164.168.247.252l3.008-2.768c.851-.762,2.006-.939,3.005-.587v-5.186c0-1.654,1.346-3,3-3s3,1.346,3,3ZM7,3.2c0-1.765,1.346-3.2,3-3.2.782,0,1.477.27,2,.727.523-.457,1.218-.727,2-.727,1.654,0,3,1.436,3,3.2,0,2.004-2.042,4.064-3.754,5.438-.361.29-.803.435-1.246.435s-.885-.145-1.247-.436c-1.712-1.374-3.753-3.434-3.753-5.438Zm2,0c0,.904,1.152,2.391,3.006,3.879,1.842-1.488,2.994-2.975,2.994-3.879,0-.662-.449-1.2-1-1.2-.461,0-1,.262-1,1,0,.552-.448,1-1,1s-1-.448-1-1c0-.738-.539-1-1-1-.551,0-1,.539-1,1.2Z"/></symbol>

<symbol id="ui-verify" viewBox="0 0 24 24"><path d="M12 2C6.5 2 2 6.5 2 12s4.5 10 10 10 10-4.5 10-10S17.5 2 12 2zM9.8 17.3l-4.2-4.1L7 11.8l2.8 2.7L17 7.4l1.4 1.4-8.6 8.5z"></path></symbol>


<!-- Reactions -->
<symbol id="reaction-heart" viewBox="0 0 24 24"><path d="M12,0A12.013,12.013,0,0,0,0,12c.6,15.9,23.4,15.893,24,0A12.013,12.013,0,0,0,12,0Zm0,22A10.011,10.011,0,0,1,2,12C2.5-1.248,21.5-1.244,22,12A10.011,10.011,0,0,1,12,22Zm5.842-6.458A6.827,6.827,0,0,1,12,19a6.836,6.836,0,0,1-5.848-3.458A1,1,0,0,1,7.2,14.024,15.4,15.4,0,0,0,12,15a15.4,15.4,0,0,0,4.792-.976A1,1,0,0,1,17.842,15.542ZM19,8.65c0,1.3-1.692,2.818-2.535,3.494a.743.743,0,0,1-.93,0c-5.7-4.279.059-7.109.465-3.494A1.5,1.5,0,1,1,19,8.65Zm-14,0a1.5,1.5,0,1,1,3,0c.41-3.617,6.167-.78.465,3.494a.743.743,0,0,1-.93,0C6.692,11.468,5,9.948,5,8.65Z"/></symbol>
<symbol id="reaction-surprise" viewBox="0 0 24 24"><path d="M12,24A12.013,12.013,0,0,1,0,12C.6-3.9,23.4-3.894,24,12A12.013,12.013,0,0,1,12,24ZM12,2A10.011,10.011,0,0,0,2,12c.5,13.248,19.5,13.244,20,0A10.011,10.011,0,0,0,12,2Zm0,12a3,3,0,0,0,0,6A3,3,0,0,0,12,14ZM8.5,8a1.5,1.5,0,0,0,0,3A1.5,1.5,0,0,0,8.5,8Zm7,0a1.5,1.5,0,0,0,0,3A1.5,1.5,0,0,0,15.5,8Z"/></symbol>
<symbol id="reaction-swear" viewBox="0 0 24 24"><path d="M12,2C6.486,2,2,6.486,2,12H0C0,5.383,5.383,0,12,0s12,5.383,12,12h-2c0-5.514-4.486-10-10-10Zm5.398,4.201l-2.674,2.015c-.434,.263-.724,.74-.724,1.284,0,.828,.672,1.5,1.5,1.5s1.5-.672,1.5-1.5c0-.155-.023-.304-.067-.444l1.668-1.257-1.203-1.598Zm-8.123,2.015l-2.674-2.015-1.203,1.598,1.668,1.257c-.043,.14-.067,.289-.067,.444,0,.828,.672,1.5,1.5,1.5s1.5-.672,1.5-1.5c0-.545-.29-1.021-.724-1.284Zm-6.652,7.784h2.376c.552,0,1,.449,1,1h2c0-1.654-1.346-3-3-3v-1H3v1h-.376c-1.447,0-2.624,1.177-2.624,2.624,0,1.288,.923,2.377,2.193,2.588l3.285,.548c.302,.05,.521,.309,.521,.616,0,.344-.28,.624-.624,.624H3c-.552,0-1-.449-1-1H0c0,1.654,1.346,3,3,3v1h2v-1h.376c1.447,0,2.624-1.177,2.624-2.624,0-1.288-.923-2.377-2.193-2.588l-3.285-.548c-.302-.05-.521-.309-.521-.616,0-.344,.28-.624,.624-.624Zm7.376,4h2v-6h-2v6Zm12-4h2v2h-2v2h2v2h-2v2h-2v-2h-2v2h-2v-2h-2v-2h2v-2h-2v-2h2v-2h2v2h2v-2h2v2Zm-2,2h-2v2h2v-2Zm-10,6h2v-2h-2v2Z"/></symbol>
<symbol id="reaction-tear" viewBox="0 0 24 24"><path d="M12,0A12,12,0,1,0,24,12,12.013,12.013,0,0,0,12,0Zm0,22A10,10,0,1,1,22,12,10.011,10.011,0,0,1,12,22ZM10,9.5A1.5,1.5,0,1,1,8.5,8,1.5,1.5,0,0,1,10,9.5Zm4,0A1.5,1.5,0,1,1,15.5,11,1.5,1.5,0,0,1,14,9.5ZM10,16a2,2,0,0,1-4,0c0-1.59,2-3.6,2-3.6S10,14.369,10,16Zm2-2a9.454,9.454,0,0,1,5.666,2.254l-1.33,1.493A7.517,7.517,0,0,0,12,16a5,5,0,0,0-.457-1.962C11.7,14.027,11.843,14,12,14Z"/></symbol>
<symbol id="reaction-thinking" viewBox="0 0 24 24"><path d="M24,12c0,5.337-3.506,9.861-8.334,11.414,.209-.451,.331-.948,.332-1.469v-.79c3.528-1.547,6.002-5.064,6.002-9.155,0-5.514-4.486-10-10-10S2,6.486,2,12c0,2.351,.82,4.51,2.182,6.219-.219,.926-.233,1.896-.028,2.831C1.615,18.853,0,15.616,0,12,0,5.383,5.383,0,12,0s12,5.383,12,12ZM7,9.5c0,.828,.672,1.5,1.5,1.5s1.5-.672,1.5-1.5-.672-1.5-1.5-1.5-1.5,.672-1.5,1.5Zm10,1c0-.828-.672-1.5-1.5-1.5s-1.5,.672-1.5,1.5,.672,1.5,1.5,1.5,1.5-.672,1.5-1.5Zm-5.012-3.95c-.047-.104-1.177-2.55-3.488-2.55-1.744,0-2.612,1.186-2.705,1.321l1.646,1.135s.358-.456,1.059-.456c1,0,1.661,1.364,1.668,1.377l1.82-.827Zm4.317,9.643l-2.302,.721-.005,5.029c0,.645-.414,1.218-1.026,1.422l-1.309,.436c-.43,.135-.865,.199-1.293,.199-.708,0-1.396-.175-2.009-.495-1.267-.662-2.208-1.945-2.324-3.587-.057-.809,.155-1.617,.531-2.336l1.659-3.172c.179-.341,.527-.537,.887-.537,.156,0,.315,.037,.463,.114,.489,.256,.679,.86,.423,1.349l-.482,.921,6.196-1.955c.099-.031,.198-.046,.297-.046,.422,0,.812,.271,.945,.695,.164,.522-.127,1.078-.649,1.242Z"/></symbol>


<!-- UI -->
<symbol id="ui-bookmark-add" viewBox="0 0 24 24"><path d="M5 2H19C19.5523 2 20 2.44772 20 3V22.1433C20 22.4194 19.7761 22.6434 19.5 22.6434C19.4061 22.6434 19.314 22.6168 19.2344 22.5669L12 18.0313L4.76559 22.5669C4.53163 22.7136 4.22306 22.6429 4.07637 22.4089C4.02647 22.3293 4 22.2373 4 22.1433V3C4 2.44772 4.44772 2 5 2ZM18 4H6V19.4324L12 15.6707L18 19.4324V4Z"></path></symbol>
<symbol id="ui-bookmark-remove" viewBox="0 0 24 24"><path d="M5 2H19C19.5523 2 20 2.44772 20 3V22.1433C20 22.4194 19.7761 22.6434 19.5 22.6434C19.4061 22.6434 19.314 22.6168 19.2344 22.5669L12 18.0313L4.76559 22.5669C4.53163 22.7136 4.22306 22.6429 4.07637 22.4089C4.02647 22.3293 4 22.2373 4 22.1433V3C4 2.44772 4.44772 2 5 2ZM18 4H6V19.4324L12 15.6707L18 19.4324V4ZM8 9H16V11H8V9Z"></path></symbol>
<symbol id="ui-pencil" viewBox="0 0 24 24"><path d="M6.41421 15.89L16.5563 5.74786L15.1421 4.33365L5 14.4758V15.89H6.41421ZM7.24264 17.89H3V13.6474L14.435 2.21233C14.8256 1.8218 15.4587 1.8218 15.8492 2.21233L18.6777 5.04075C19.0682 5.43128 19.0682 6.06444 18.6777 6.45497L7.24264 17.89ZM3 19.89H21V21.89H3V19.89Z"></path></symbol>
<symbol id="ui-delete" viewBox="0 0 24 24"><path d="M17 6H22V8H20V21C20 21.5523 19.5523 22 19 22H5C4.44772 22 4 21.5523 4 21V8H2V6H7V3C7 2.44772 7.44772 2 8 2H16C16.5523 2 17 2.44772 17 3V6ZM18 8H6V20H18V8ZM9 11H11V17H9V11ZM13 11H15V17H13V11ZM9 4V6H15V4H9Z"></path></symbol>
<symbol id="ui-check" viewBox="0 0 24 24"><path d="M10.0007 15.1709L19.1931 5.97852L20.6073 7.39273L10.0007 17.9993L3.63672 11.6354L5.05093 10.2212L10.0007 15.1709Z"></path></symbol>
<symbol id="ui-check-circle" viewBox="0 0 24 24"><path d="M12 22C6.47715 22 2 17.5228 2 12C2 6.47715 6.47715 2 12 2C17.5228 2 22 6.47715 22 12C22 17.5228 17.5228 22 12 22ZM12 20C16.4183 20 20 16.4183 20 12C20 7.58172 16.4183 4 12 4C7.58172 4 4 7.58172 4 12C4 16.4183 7.58172 20 12 20ZM11.0026 16L6.75999 11.7574L8.17421 10.3431L11.0026 13.1716L16.6595 7.51472L18.0737 8.92893L11.0026 16Z"></path></symbol>
<symbol id="ui-check-double" viewBox="0 0 24 24"><path d="M11.602 13.7599L13.014 15.1719L21.4795 6.7063L22.8938 8.12051L13.014 18.0003L6.65 11.6363L8.06421 10.2221L10.189 12.3469L11.6025 13.7594L11.602 13.7599ZM11.6037 10.9322L16.5563 5.97949L17.9666 7.38977L13.014 12.3424L11.6037 10.9322ZM8.77698 16.5873L7.36396 18.0003L1 11.6363L2.41421 10.2221L3.82723 11.6352L3.82604 11.6363L8.77698 16.5873Z"></path></symbol>
<symbol id="ui-close" viewBox="0 0 24 24"><path d="M12.0007 10.5865L16.9504 5.63672L18.3646 7.05093L13.4149 12.0007L18.3646 16.9504L16.9504 18.3646L12.0007 13.4149L7.05093 18.3646L5.63672 16.9504L10.5865 12.0007L5.63672 7.05093L7.05093 5.63672L12.0007 10.5865Z"></path></symbol>
<symbol id="ui-close-circle" viewBox="0 0 24 24"><path d="M12 22C6.47715 22 2 17.5228 2 12C2 6.47715 6.47715 2 12 2C17.5228 2 22 6.47715 22 12C22 17.5228 17.5228 22 12 22ZM12 20C16.4183 20 20 16.4183 20 12C20 7.58172 16.4183 4 12 4C7.58172 4 4 7.58172 4 12C4 16.4183 7.58172 20 12 20ZM12 10.5858L14.8284 7.75736L16.2426 9.17157L13.4142 12L16.2426 14.8284L14.8284 16.2426L12 13.4142L9.17157 16.2426L7.75736 14.8284L10.5858 12L7.75736 9.17157L9.17157 7.75736L12 10.5858Z"></path></symbol>
<symbol id="ui-error-warning" viewBox="0 0 24 24"><path d="M12 22C6.47715 22 2 17.5228 2 12C2 6.47715 6.47715 2 12 2C17.5228 2 22 6.47715 22 12C22 17.5228 17.5228 22 12 22ZM12 20C16.4183 20 20 16.4183 20 12C20 7.58172 16.4183 4 12 4C7.58172 4 4 7.58172 4 12C4 16.4183 7.58172 20 12 20ZM11 15H13V17H11V15ZM11 7H13V13H11V7Z"></path></symbol>
<symbol id="ui-link" viewBox="0 0 24 24"><path d="M18.3643 15.5353L16.95 14.1211L18.3643 12.7069C20.3169 10.7543 20.3169 7.58847 18.3643 5.63585C16.4116 3.68323 13.2458 3.68323 11.2932 5.63585L9.87898 7.05007L8.46477 5.63585L9.87898 4.22164C12.6127 1.48797 17.0448 1.48797 19.7785 4.22164C22.5121 6.95531 22.5121 11.3875 19.7785 14.1211L18.3643 15.5353ZM15.5358 18.3638L14.1216 19.778C11.388 22.5117 6.9558 22.5117 4.22213 19.778C1.48846 17.0443 1.48846 12.6122 4.22213 9.87849L5.63634 8.46428L7.05055 9.87849L5.63634 11.2927C3.68372 13.2453 3.68372 16.4112 5.63634 18.3638C7.58896 20.3164 10.7548 20.3164 12.7074 18.3638L14.1216 16.9496L15.5358 18.3638ZM14.8287 7.75717L16.2429 9.17139L9.17187 16.2425L7.75766 14.8282L14.8287 7.75717Z"></path></symbol>
<symbol id="ui-more" viewBox="0 0 24 24"><path d="M5 10C3.9 10 3 10.9 3 12C3 13.1 3.9 14 5 14C6.1 14 7 13.1 7 12C7 10.9 6.1 10 5 10ZM19 10C17.9 10 17 10.9 17 12C17 13.1 17.9 14 19 14C20.1 14 21 13.1 21 12C21 10.9 20.1 10 19 10ZM12 10C10.9 10 10 10.9 10 12C10 13.1 10.9 14 12 14C13.1 14 14 13.1 14 12C14 10.9 13.1 10 12 10Z"></path></symbol>
<symbol id="ui-eye" viewBox="0 0 24 24"><path d="M12.0003 3C17.3924 3 21.8784 6.87976 22.8189 12C21.8784 17.1202 17.3924 21 12.0003 21C6.60812 21 2.12215 17.1202 1.18164 12C2.12215 6.87976 6.60812 3 12.0003 3ZM12.0003 19C16.2359 19 19.8603 16.052 20.7777 12C19.8603 7.94803 16.2359 5 12.0003 5C7.7646 5 4.14022 7.94803 3.22278 12C4.14022 16.052 7.7646 19 12.0003 19ZM12.0003 16.5C9.51498 16.5 7.50026 14.4853 7.50026 12C7.50026 9.51472 9.51498 7.5 12.0003 7.5C14.4855 7.5 16.5003 9.51472 16.5003 12C16.5003 14.4853 14.4855 16.5 12.0003 16.5ZM12.0003 14.5C13.381 14.5 14.5003 13.3807 14.5003 12C14.5003 10.6193 13.381 9.5 12.0003 9.5C10.6196 9.5 9.50026 10.6193 9.50026 12C9.50026 13.3807 10.6196 14.5 12.0003 14.5Z"></path></symbol>
<symbol id="ui-eye-off" viewBox="0 0 24 24"><path d="M17.8827 19.2968C16.1814 20.3755 14.1638 21.0002 12.0003 21.0002C6.60812 21.0002 2.12215 17.1204 1.18164 12.0002C1.61832 9.62282 2.81932 7.5129 4.52047 5.93457L1.39366 2.80777L2.80788 1.39355L22.6069 21.1925L21.1927 22.6068L17.8827 19.2968ZM5.9356 7.3497C4.60673 8.56015 3.6378 10.1672 3.22278 12.0002C4.14022 16.0521 7.7646 19.0002 12.0003 19.0002C13.5997 19.0002 15.112 18.5798 16.4243 17.8384L14.396 15.8101C13.7023 16.2472 12.8808 16.5002 12.0003 16.5002C9.51498 16.5002 7.50026 14.4854 7.50026 12.0002C7.50026 11.1196 7.75317 10.2981 8.19031 9.60442L5.9356 7.3497ZM12.9139 14.328L9.67246 11.0866C9.5613 11.3696 9.50026 11.6777 9.50026 12.0002C9.50026 13.3809 10.6196 14.5002 12.0003 14.5002C12.3227 14.5002 12.6309 14.4391 12.9139 14.328ZM20.8068 16.5925L19.376 15.1617C20.0319 14.2268 20.5154 13.1586 20.7777 12.0002C19.8603 7.94818 16.2359 5.00016 12.0003 5.00016C11.1544 5.00016 10.3329 5.11773 9.55249 5.33818L7.97446 3.76015C9.22127 3.26959 10.5793 3.00016 12.0003 3.00016C17.3924 3.00016 21.8784 6.87992 22.8189 12.0002C22.5067 13.6998 21.8038 15.2628 20.8068 16.5925ZM11.7229 7.50857C11.8146 7.50299 11.9071 7.50016 12.0003 7.50016C14.4855 7.50016 16.5003 9.51488 16.5003 12.0002C16.5003 12.0933 16.4974 12.1858 16.4919 12.2775L11.7229 7.50857Z"></path></symbol>
<symbol id="ui-notification" viewBox="0 0 24 24"><path d="M18 10C18 6.68629 15.3137 4 12 4C8.68629 4 6 6.68629 6 10V18H18V10ZM20 18.6667L20.4 19.2C20.5657 19.4209 20.5209 19.7343 20.3 19.9C20.2135 19.9649 20.1082 20 20 20H4C3.72386 20 3.5 19.7761 3.5 19.5C3.5 19.3918 3.53509 19.2865 3.6 19.2L4 18.6667V10C4 5.58172 7.58172 2 12 2C16.4183 2 20 5.58172 20 10V18.6667ZM9.5 21H14.5C14.5 22.3807 13.3807 23.5 12 23.5C10.6193 23.5 9.5 22.3807 9.5 21Z"></path></symbol>
<symbol id="ui-notification-off" viewBox="0 0 24 24"><path d="M18.5869 20.0002H4.00113C3.72499 20.0002 3.50113 19.7763 3.50113 19.5002C3.50113 19.392 3.53622 19.2867 3.60113 19.2002L4.00113 18.6668V10.0002C4.00113 8.67034 4.3256 7.41631 4.89968 6.31291L1.39453 2.80777L2.80874 1.39355L22.6077 21.1925L21.1935 22.6068L18.5869 20.0002ZM6.40874 7.82198C6.14556 8.49719 6.00113 9.23181 6.00113 10.0002V18.0002H16.5869L6.40874 7.82198ZM20.0011 15.786L18.0011 13.786V10.0002C18.0011 6.68645 15.3148 4.00016 12.0011 4.00016C10.9127 4.00016 9.89194 4.28998 9.01185 4.79667L7.56016 3.34499C8.83067 2.49549 10.3581 2.00016 12.0011 2.00016C16.4194 2.00016 20.0011 5.58188 20.0011 10.0002V15.786ZM9.50113 21.0002H14.5011C14.5011 22.3809 13.3818 23.5002 12.0011 23.5002C10.6204 23.5002 9.50113 22.3809 9.50113 21.0002Z"></path></symbol>
<symbol id="ui-pushpin" viewBox="0 0 24 24"><path d="M13.8273 1.69L22.3126 10.1753L20.8984 11.5895L20.1913 10.8824L15.9486 15.125L15.2415 18.6606L13.8273 20.0748L9.58466 15.8321L4.63492 20.7819L3.2207 19.3677L8.17045 14.4179L3.92781 10.1753L5.34202 8.76107L8.87756 8.05396L13.1202 3.81132L12.4131 3.10422L13.8273 1.69ZM14.5344 5.22554L9.86358 9.89637L7.0417 10.4607L13.5418 16.9609L14.1062 14.139L18.7771 9.46818L14.5344 5.22554Z"></path></symbol>
<symbol id="ui-unpin" viewBox="0 0 24 24"><path d="M20.9701 17.1716 19.5559 18.5858 16.0214 15.0513 15.9476 15.1251 15.2405 18.6606 13.8263 20.0748 9.58369 15.8322 4.63394 20.7819 3.21973 19.3677 8.16947 14.418 3.92683 10.1753 5.34105 8.7611 8.87658 8.05399 8.95029 7.98028 5.41373 4.44371 6.82794 3.0295 20.9701 17.1716ZM10.3645 9.39449 9.86261 9.8964 7.04072 10.4608 13.5409 16.9609 14.1052 14.139 14.6071 13.6371 10.3645 9.39449ZM18.7761 9.46821 17.4356 10.8087 18.8498 12.2229 20.1903 10.8824 20.8974 11.5895 22.3116 10.1753 13.8263 1.69003 12.4121 3.10425 13.1192 3.81135 11.7787 5.15185 13.1929 6.56607 14.5334 5.22557 18.7761 9.46821Z"></path></symbol>
<symbol id="ui-history" viewBox="0 0 24 24"><path d="M12 2C17.5228 2 22 6.47715 22 12C22 17.5228 17.5228 22 12 22C6.47715 22 2 17.5228 2 12H4C4 16.4183 7.58172 20 12 20C16.4183 20 20 16.4183 20 12C20 7.58172 16.4183 4 12 4C9.25022 4 6.82447 5.38734 5.38451 7.50024L8 7.5V9.5H2V3.5H4L3.99989 5.99918C5.82434 3.57075 8.72873 2 12 2ZM13 7L12.9998 11.585L16.2426 14.8284L14.8284 16.2426L10.9998 12.413L11 7H13Z"></path></symbol>
  </defs>
</svg>